<svg xmlns="http://www.w3.org/2000/svg" xmlns:xlink="http://www.w3.org/1999/xlink" width="40" height="40" viewBox="0 0 40 40" fill="none">
<rect x="0" y="0" width="40" height="40"   fill="#822222" fill-opacity="0">
</rect>
<path d="M30.2414 15.5536C30.2414 17.5162 28.6584 19.1072 26.7056 19.1072C24.7529 19.1072 23.1699 17.5162 23.1699 15.5536C23.1699 13.591 24.7529 12 26.7056 12C28.6584 12 30.2414 13.591 30.2414 15.5536Z"   fill="#FFFFFF" >
</path>
<path d="M15.2743 19.2838C15.0425 19.4014 14.775 19.4541 14.498 19.4208C13.748 19.3308 13.2129 18.6454 13.3029 17.89C13.3615 17.3981 13.6707 16.9978 14.0863 16.8032C15.0537 16.3322 15.8822 16.0202 16.5717 15.8672C17.4666 15.6686 18.3084 15.6837 19.0971 15.9125C19.8748 16.1381 20.6507 16.5887 21.4248 17.2644C22.0926 17.8472 22.8455 18.676 23.6838 19.7507C24.6681 21.0128 25.6798 21.603 26.7187 21.5212C27.1142 21.49 27.5439 21.3662 28.0078 21.1498C28.3058 21.0107 28.709 20.7798 29.2175 20.457C29.2971 20.4064 29.3577 20.3681 29.399 20.3421C29.6558 20.1777 29.9685 20.0981 30.2941 20.1372C31.0441 20.2272 31.5792 20.9126 31.4892 21.668C31.4373 22.1037 31.1887 22.4676 30.8438 22.6803C30.8061 22.704 30.7498 22.7396 30.6749 22.7872C30.067 23.1732 29.5607 23.4606 29.1561 23.6494C28.3944 24.0048 27.6522 24.2109 26.9297 24.2678C25.979 24.3426 25.0667 24.1656 24.1928 23.7365C23.2419 23.2697 22.355 22.5088 21.5321 21.4536C20.8016 20.517 20.1683 19.8148 19.6323 19.347C19.1615 18.936 18.73 18.6736 18.3379 18.5599C17.9941 18.4601 17.6008 18.4594 17.1581 18.5576C16.6772 18.6643 16.0493 18.9064 15.2743 19.2838Z" fill-rule="evenodd"  fill="#FFFFFF" >
</path>
<path d="M11.3623 21.09C11.6832 20.8523 12.1039 20.757 12.5191 20.866C13.25 21.0578 13.6875 21.81 13.4962 22.546C13.4118 22.8712 13.2188 23.1387 12.9666 23.3196L9.47986 25.8613C9.15893 26.0989 8.7383 26.1943 8.32304 26.0853C7.59214 25.8934 7.15467 25.1412 7.34593 24.4052C7.4304 24.0801 7.62339 23.8125 7.87554 23.6316L11.3623 21.09Z" fill-rule="evenodd"  fill="#FFFFFF" >
</path>
<path d="M14.9645 22.8915C15.2873 22.6453 15.7148 22.5451 16.1368 22.6558C16.8677 22.8477 17.3052 23.5999 17.1139 24.3359C17.031 24.6552 16.8434 24.919 16.5979 25.0997L10.8601 29.3988C10.5373 29.6449 10.1098 29.7452 9.68779 29.6344C8.95689 29.4426 8.51943 28.6904 8.71068 27.9543C8.79363 27.6351 8.98124 27.3713 9.22675 27.1906L14.9645 22.8915Z" fill-rule="evenodd"  fill="#FFFFFF" >
</path>
<path d="M12.2155 33.2448C11.9104 33.4746 11.5123 33.5757 11.1106 33.4896C10.3718 33.3313 9.9009 32.5998 10.0587 31.8557C10.1318 31.5115 10.3266 31.2249 10.588 31.032L19.9125 24.08C20.3352 23.7649 20.8094 23.6082 21.3352 23.6099C21.861 23.6117 22.3339 23.7715 22.754 24.0895L27.987 28.0505C29.8123 29.4321 28.8368 32.3598 26.5525 32.3561L23.0536 32.3504C22.9511 32.3523 22.8468 32.3426 22.7423 32.3202C22.0035 32.1619 21.5326 31.4304 21.6904 30.6863C21.8299 30.0288 22.4138 29.5815 23.0576 29.5956L25.4787 29.5996L21.3234 26.4543L12.2155 33.2448Z" fill-rule="evenodd"  fill="#FFFFFF" >
</path>
</svg>
