<svg xmlns="http://www.w3.org/2000/svg" xmlns:xlink="http://www.w3.org/1999/xlink" width="40" height="40" viewBox="0 0 40 40" fill="none">
<path d="M0 0L40 0L40 40L0 40L0 0Z"   fill="#FFFFFF" fill-opacity="0">
</path>
<path d="M22.7988 15.526C22.7988 16.3594 23.4853 17.0349 24.3322 17.0349L30.4655 17.0349C31.3123 17.0349 31.9988 16.3594 31.9988 15.526C31.9988 14.6927 31.3123 14.0171 30.4655 14.0171L24.3322 14.0171C23.4853 14.0171 22.7988 14.6927 22.7988 15.526Z" fill-rule="evenodd"  fill="#FFFFFF" >
</path>
<path d="M9 15.526C9 16.3594 9.6865 17.0349 10.5333 17.0349L16.6667 17.0349C17.5135 17.0349 18.2 16.3594 18.2 15.526C18.2 14.6927 17.5135 14.0171 16.6667 14.0171L10.5333 14.0171C9.6865 14.0171 9 14.6927 9 15.526Z" fill-rule="evenodd"  fill="#FFFFFF" >
</path>
<path d="M13.5995 11C12.7526 11 12.0661 11.6756 12.0661 12.5089L12.0661 18.5446C12.0661 19.378 12.7526 20.0535 13.5995 20.0535C14.4463 20.0535 15.1328 19.378 15.1328 18.5446L15.1328 12.5089C15.1328 11.6756 14.4463 11 13.5995 11Z" fill-rule="evenodd"  fill="#FFFFFF" >
</path>
<path d="M10.3494 26.5313C9.75056 27.1206 9.75056 28.076 10.3494 28.6653L14.6863 32.9331C15.2851 33.5224 16.2559 33.5224 16.8547 32.9331C17.4536 32.3439 17.4535 31.3885 16.8547 30.7992L12.5178 26.5313C11.919 25.9421 10.9482 25.9421 10.3494 26.5313Z" fill-rule="evenodd"  fill="#FFFFFF" >
</path>
<path d="M16.8533 26.5312C16.2545 25.9419 15.2836 25.9419 14.6848 26.5312L10.3479 30.7991C9.74909 31.3883 9.74908 32.3437 10.3479 32.933C10.9467 33.5223 11.9175 33.5223 12.5163 32.933L16.8533 28.6651C17.4521 28.0758 17.4521 27.1204 16.8533 26.5312Z" fill-rule="evenodd"  fill="#FFFFFF" >
</path>
<path d="M23.5693 29.1065C23.5693 29.5232 23.9126 29.861 24.336 29.861L30.4693 29.861C30.8928 29.861 31.236 29.5232 31.236 29.1065C31.236 28.6898 30.8928 28.3521 30.4693 28.3521L24.336 28.3521C23.9126 28.3521 23.5693 28.6898 23.5693 29.1065Z" fill-rule="evenodd"  fill="#FFFFFF" >
</path>
<path d="M28.9339 26.0905C28.9339 26.9238 28.2474 27.5994 27.4005 27.5994C26.5537 27.5994 25.8672 26.9238 25.8672 26.0905C25.8672 25.2571 26.5537 24.5815 27.4005 24.5815C28.2474 24.5815 28.9339 25.2571 28.9339 26.0905Z"   fill="#FFFFFF" >
</path>
<path d="M28.9339 32.1246C28.9339 32.958 28.2474 33.6336 27.4005 33.6336C26.5537 33.6336 25.8672 32.958 25.8672 32.1246C25.8672 31.2913 26.5537 30.6157 27.4005 30.6157C28.2474 30.6157 28.9339 31.2913 28.9339 32.1246Z"   fill="#FFFFFF" >
</path>
</svg>
