<svg xmlns="http://www.w3.org/2000/svg" xmlns:xlink="http://www.w3.org/1999/xlink" width="40" height="40"
  viewBox="0 0 40 40" fill="none">
  <path d="M0 0L40 0L40 40L0 40L0 0Z" fill="#FFFFFF" fill-opacity="0">
  </path>
  <path
    d="M13.3 12.2998L13.3 14.5953C14.3058 15.0797 15 16.1087 15 17.2998C15 18.4909 14.3058 19.5199 13.3 20.0043L13.3 32.2998C13.3 33.0178 12.718 33.5998 12 33.5998C11.282 33.5998 10.7 33.0178 10.7 32.2998L10.7 20.0043C9.69416 19.5199 9 18.4909 9 17.2998C9 16.1087 9.69416 15.0797 10.7 14.5953L10.7 12.2998C10.7 11.5818 11.282 10.9998 12 10.9998C12.718 10.9998 13.3 11.5818 13.3 12.2998ZM21.3 25.5953L21.3 12.2998C21.3 11.5818 20.718 10.9998 20 10.9998C19.282 10.9998 18.7 11.5818 18.7 12.2998L18.7 25.5953C17.6942 26.0797 17 27.1087 17 28.2998C17 29.4909 17.6942 30.5199 18.7 31.0043L18.7 32.2998C18.7 33.0178 19.282 33.5998 20 33.5998C20.718 33.5998 21.3 33.0178 21.3 32.2998L21.3 31.0043C22.3058 30.5199 23 29.4909 23 28.2998C23 27.1087 22.3058 26.0797 21.3 25.5953ZM29.3 19.5953L29.3 12.2998C29.3 11.5818 28.718 10.9998 28 10.9998C27.282 10.9998 26.7 11.5818 26.7 12.2998L26.7 19.5953C25.6942 20.0797 25 21.1087 25 22.2998C25 23.4909 25.6942 24.5199 26.7 25.0043L26.7 32.2998C26.7 33.0178 27.282 33.5998 28 33.5998C28.718 33.5998 29.3 33.0178 29.3 32.2998L29.3 25.0043C30.3058 24.5199 31 23.4909 31 22.2998C31 21.1087 30.3058 20.0797 29.3 19.5953Z"
    fill-rule="evenodd" fill="#FFFFFF">
  </path>
</svg>
