<svg xmlns="http://www.w3.org/2000/svg" xmlns:xlink="http://www.w3.org/1999/xlink" width="40" height="40" viewBox="0 0 40 40" fill="none">
<path d="M0 0L40 0L40 40L0 40L0 0Z"   fill="#FFFFFF" fill-opacity="0">
</path>
<path d="M11.9827 18.4785L9.59968 18.4785C8.16392 18.4785 7 19.6605 7 21.1185C7 22.5765 8.16392 23.7585 9.59968 23.7585L11.9827 23.7585L12.3577 24.6723C12.4586 24.9183 12.6952 25.0785 12.9576 25.0785L15.3407 25.0785C15.603 25.0785 15.8397 24.9183 15.9406 24.6723L16.3155 23.7585L23.8979 23.7585C25.3337 23.7585 26.4976 22.5765 26.4976 21.1185C26.4976 19.6605 25.3337 18.4785 23.8979 18.4785L16.3155 18.4785L15.9406 19.3924C15.8397 19.6383 15.603 19.7985 15.3407 19.7985L12.9576 19.7985C12.6952 19.7985 12.4586 19.6383 12.3577 19.3924L11.9827 18.4785Z" fill-rule="evenodd"  fill="#FFFFFF" >
</path>
<path d="M11.9827 26.4014L9.59968 26.4014C8.16392 26.4014 7 27.5833 7 29.0414C7 30.4994 8.16392 31.6814 9.59968 31.6814L11.9827 31.6814L12.3577 32.5952C12.4586 32.8411 12.6952 33.0014 12.9576 33.0014L15.3407 33.0014C15.603 33.0014 15.8397 32.8411 15.9406 32.5952L16.3155 31.6814L23.8979 31.6814C25.3337 31.6814 26.4976 30.4994 26.4976 29.0414C26.4976 27.5833 25.3337 26.4014 23.8979 26.4014L16.3155 26.4014L15.9406 27.3152C15.8397 27.5612 15.603 27.7214 15.3407 27.7214L12.9576 27.7214C12.6952 27.7214 12.4586 27.5612 12.3577 27.3152L11.9827 26.4014Z" fill-rule="evenodd"  fill="#FFFFFF" >
</path>
<path    stroke="rgba(255, 255, 255, 1)" stroke-width="2"  stroke-linecap="round"  d="M26.5 14.2251L33 14.2251">
</path>
<path    stroke="rgba(255, 255, 255, 1)" stroke-width="2"  stroke-linecap="round"  d="M29.75 11L29.75 17.4546">
</path>
</svg>
