<svg xmlns="http://www.w3.org/2000/svg" xmlns:xlink="http://www.w3.org/1999/xlink" width="30" height="32" viewBox="0 0 30 32" fill="none">
<path     fill="#472AC7"  d="M8.77191 3.17162L9.32611 3.06737C13.0758 2.36198 16.9242 2.36198 20.6739 3.06737L21.2281 3.17162C25.0854 3.89726 28.1027 6.91459 28.8284 10.7719L28.8284 10.7719C29.6027 14.8879 29.6027 19.1121 28.8284 23.2281L28.8284 23.2281C28.1027 27.0854 25.0854 30.1027 21.2281 30.8284L20.6739 30.9326C16.9242 31.638 13.0758 31.638 9.32611 30.9326L8.77191 30.8284C4.91459 30.1027 1.89726 27.0854 1.17162 23.2281L1.17162 23.2281C0.397331 19.1121 0.397331 14.8879 1.17162 10.7719L1.17162 10.7719C1.89726 6.91459 4.91459 3.89726 8.77191 3.17162Z">
</path>
<path     fill="#8066F9"  d="M8.77191 1.17162L9.32611 1.06737C13.0758 0.361975 16.9242 0.361975 20.6739 1.06737L21.2281 1.17162C25.0854 1.89726 28.1027 4.91459 28.8284 8.77191L28.8284 8.77191C29.6027 12.8879 29.6027 17.1121 28.8284 21.2281L28.8284 21.2281C28.1027 25.0854 25.0854 28.1027 21.2281 28.8284L20.6739 28.9326C16.9242 29.638 13.0758 29.638 9.32611 28.9326L8.77191 28.8284C4.91459 28.1027 1.89726 25.0854 1.17162 21.2281L1.17162 21.2281C0.397331 17.1121 0.397331 12.8879 1.17162 8.77191L1.17162 8.77191C1.89726 4.91459 4.91459 1.89726 8.77191 1.17162Z">
</path>
<ellipse transform="matrix(0.9998908042907715, 0, 0, 1.0000011920928955, 13.359375, 13.5498046875)" cx="2" cy="1.9999999999999947" rx="2" ry="1.9999999999999947" stroke="rgba(255, 255, 255, 1)" stroke-width="2"   >
</ellipse>
<path    stroke="rgba(255, 255, 255, 1)" stroke-width="2"  stroke-linecap="round"  d="M11.2058 11.6514C10.4653 12.5613 10.0137 13.776 10.0137 15.1098C10.0137 16.4435 10.4653 17.6583 11.2058 18.5682">
</path>
<path    stroke="rgba(255, 255, 255, 1)" stroke-width="2"  stroke-linecap="round"  d="M19.7278 11.6001C20.4683 12.51 20.9199 13.7248 20.9199 15.0585C20.9199 16.3922 20.4683 17.607 19.7278 18.5169">
</path>
<path    stroke="rgba(255, 255, 255, 1)" stroke-width="2"  stroke-linecap="round"  d="M22.3997 10C23.3937 11.3156 24 13.0721 24 15.0006C24 16.9291 23.3937 18.6856 22.3997 20.0012">
</path>
<path    stroke="rgba(255, 255, 255, 1)" stroke-width="2"  stroke-linecap="round"  d="M8.60034 10C7.60627 11.3156 7 13.0721 7 15.0006C7 16.9291 7.60627 18.6856 8.60034 20.0012">
</path>
</svg>
