<svg xmlns="http://www.w3.org/2000/svg" xmlns:xlink="http://www.w3.org/1999/xlink" width="30" height="32" viewBox="0 0 30 32" fill="none">
<path     fill="#099967"  d="M8.77191 3.17162L9.32611 3.06737C13.0758 2.36198 16.9242 2.36198 20.6739 3.06737L21.2281 3.17162C25.0854 3.89726 28.1027 6.91459 28.8284 10.7719L28.8284 10.7719C29.6027 14.8879 29.6027 19.1121 28.8284 23.2281L28.8284 23.2281C28.1027 27.0854 25.0854 30.1027 21.2281 30.8284L20.6739 30.9326C16.9242 31.638 13.0758 31.638 9.32611 30.9326L8.77191 30.8284C4.91459 30.1027 1.89726 27.0854 1.17162 23.2281L1.17162 23.2281C0.397331 19.1121 0.397331 14.8879 1.17162 10.7719L1.17162 10.7719C1.89726 6.91459 4.91459 3.89726 8.77191 3.17162Z">
</path>
<path     fill="#24D496"  d="M8.77191 1.17162L9.32611 1.06737C13.0758 0.361975 16.9242 0.361975 20.6739 1.06737L21.2281 1.17162C25.0854 1.89726 28.1027 4.91459 28.8284 8.77191L28.8284 8.77191C29.6027 12.8879 29.6027 17.1121 28.8284 21.2281L28.8284 21.2281C28.1027 25.0854 25.0854 28.1027 21.2281 28.8284L20.6739 28.9326C16.9242 29.638 13.0758 29.638 9.32611 28.9326L8.77191 28.8284C4.91459 28.1027 1.89726 25.0854 1.17162 21.2281L1.17162 21.2281C0.397331 17.1121 0.397331 12.8879 1.17162 8.77191L1.17162 8.77191C1.89726 4.91459 4.91459 1.89726 8.77191 1.17162Z">
</path>
<path d="M10.0647 12.6362L8.59805 12.6362C7.71439 12.6362 6.99805 13.3688 6.99805 14.2725C6.99805 15.1763 7.71439 15.9089 8.59805 15.9089L10.0647 15.9089L10.2955 16.4753C10.3576 16.6277 10.5032 16.727 10.6647 16.727L12.1314 16.727C12.2929 16.727 12.4385 16.6277 12.5006 16.4753L12.7314 15.9089L17.398 15.9089C18.2817 15.9089 18.998 15.1763 18.998 14.2725C18.998 13.3688 18.2817 12.6362 17.398 12.6362L12.7314 12.6362L12.5006 13.2026C12.4385 13.3551 12.2929 13.4544 12.1314 13.4544L10.6647 13.4544C10.5032 13.4544 10.3576 13.3551 10.2955 13.2026L10.0647 12.6362Z" fill-rule="evenodd"  fill="#FFFFFF" >
</path>
<path d="M10.0647 17.5449L8.59805 17.5449C7.71439 17.5449 6.99805 18.2775 6.99805 19.1812C6.99805 20.0849 7.71439 20.8175 8.59805 20.8175L10.0647 20.8175L10.2955 21.384C10.3576 21.5364 10.5032 21.6357 10.6647 21.6357L12.1314 21.6357C12.2929 21.6357 12.4385 21.5364 12.5006 21.384L12.7314 20.8175L17.398 20.8175C18.2817 20.8175 18.998 20.0849 18.998 19.1812C18.998 18.2775 18.2817 17.5449 17.398 17.5449L12.7314 17.5449L12.5006 18.1113C12.4385 18.2638 12.2929 18.3631 12.1314 18.3631L10.6647 18.3631C10.5032 18.3631 10.3576 18.2638 10.2955 18.1113L10.0647 17.5449Z" fill-rule="evenodd"  fill="#FFFFFF" >
</path>
<path    stroke="rgba(255, 255, 255, 1)" stroke-width="2"  stroke-linecap="round"  d="M19 10L23 10">
</path>
<path    stroke="rgba(255, 255, 255, 1)" stroke-width="2"  stroke-linecap="round"  d="M21 8L21 12">
</path>
</svg>
