<svg xmlns="http://www.w3.org/2000/svg" xmlns:xlink="http://www.w3.org/1999/xlink" width="30" height="32"
  viewBox="0 0 30 32" fill="none">
  <path fill="#0A948F"
    d="M8.77191 3.17162L9.32611 3.06737C13.0758 2.36198 16.9242 2.36198 20.6739 3.06737L21.2281 3.17162C25.0854 3.89726 28.1027 6.91459 28.8284 10.7719L28.8284 10.7719C29.6027 14.8879 29.6027 19.1121 28.8284 23.2281L28.8284 23.2281C28.1027 27.0854 25.0854 30.1027 21.2281 30.8284L20.6739 30.9326C16.9242 31.638 13.0758 31.638 9.32611 30.9326L8.77191 30.8284C4.91459 30.1027 1.89726 27.0854 1.17162 23.2281L1.17162 23.2281C0.397331 19.1121 0.397331 14.8879 1.17162 10.7719L1.17162 10.7719C1.89726 6.91459 4.91459 3.89726 8.77191 3.17162Z">
  </path>
  <path fill="#04C9C3"
    d="M8.76466 1.17592L9.31874 1.07143C13.0732 0.363378 16.9269 0.3631 20.6814 1.07061L21.2297 1.17393C25.0891 1.90119 28.1072 4.92122 28.8321 8.78103L28.8321 8.78103C29.604 12.8911 29.6043 17.1089 28.833 21.2191L28.8327 21.2208C28.1076 25.0849 25.0849 28.1076 21.2208 28.8327L20.6652 28.9369C16.9211 29.6395 13.0789 29.6392 9.33493 28.9361L8.77355 28.8307C4.91826 28.1067 1.90175 25.092 1.17534 21.2372L1.17502 21.2355C0.398512 17.1148 0.398817 12.8853 1.17592 8.76466L1.17592 8.76466C1.9021 4.91407 4.91407 1.9021 8.76466 1.17592Z">
  </path>
  <rect x="5" y="10" width="20" height="12" rx="6" fill="#FFFFFF">
  </rect>
  <circle cx="11" cy="16" r="4" fill="#04C9C3">
  </circle>
</svg>
