<svg xmlns="http://www.w3.org/2000/svg" xmlns:xlink="http://www.w3.org/1999/xlink" width="70" height="70.00001525878906" viewBox="0 0 70 70.00001525878906" fill="none">
<rect  x="0" y="0" width="70" height="70" rx="2"    fill="#42AFFC" >
</rect>
<path fill-rule="evenodd"  fill="rgba(44, 146, 219, 1)"  d="M67.9998 0L2 0C0.895428 0 0 0.895431 0 2L0 68C0 69.1046 0.895428 70 2 70L67.9998 70C69.1044 70 69.9998 69.1046 69.9998 68L69.9998 2C69.9998 0.895431 69.1044 0 67.9998 0ZM0.999998 2C0.999998 1.44772 1.44771 1 2 1L67.9998 1C68.5521 1 68.9998 1.44772 68.9998 2L68.9998 68C68.9998 68.5523 68.5521 69 67.9998 69L2 69C1.44771 69 0.999998 68.5523 0.999998 68L0.999998 2Z">
</path>
<path d="M35.5 49.25C43.0939 49.25 49.25 43.0939 49.25 35.5C49.25 27.9061 43.0939 21.75 35.5 21.75C27.9061 21.75 21.75 27.9061 21.75 35.5C21.75 43.0939 27.9061 49.25 35.5 49.25Z" stroke="rgba(255, 255, 255, 1.00)" stroke-width="4" stroke-linejoin="round" stroke-linecap="round" >
</path>
<path    stroke="rgba(255, 255, 255, 1.00)" stroke-width="4" stroke-linejoin="round" stroke-linecap="round"  d="M35.5 49.25L35.5 41">
</path>
<path    stroke="rgba(255, 255, 255, 1.00)" stroke-width="4" stroke-linejoin="round" stroke-linecap="round"  d="M21.75 35.5L30 35.5">
</path>
<path    stroke="rgba(255, 255, 255, 1.00)" stroke-width="4" stroke-linejoin="round" stroke-linecap="round"  d="M49.25 35.5L41 35.5">
</path>
<path d="M41 35.5C41 38.5376 38.5376 41 35.5 41C32.4624 41 30 38.5376 30 35.5C30 32.4624 32.4624 30 35.5 30C38.5376 30 41 32.4624 41 35.5Z"   fill="#FFFFFF" >
</path>
<path d="M41 35.5C41 38.5376 38.5376 41 35.5 41C32.4624 41 30 38.5376 30 35.5C30 32.4624 32.4624 30 35.5 30C38.5376 30 41 32.4624 41 35.5Z" fill-rule="evenodd"  fill="#FFFFFF" >
</path>
<path d="M41 35.5C41 38.5376 38.5376 41 35.5 41C32.4624 41 30 38.5376 30 35.5C30 32.4624 32.4624 30 35.5 30C38.5376 30 41 32.4624 41 35.5Z" stroke="rgba(255, 255, 255, 1.00)" stroke-width="2" stroke-linejoin="round" stroke-linecap="round" >
</path>
<path   fill="rgba(255, 255, 255, 1)"  d="M16.708 32.7071C14.8889 34.5262 14.8889 37.4756 16.708 39.2947L16.708 39.2947L16.7081 39.2948L15.2939 40.709L15.2938 40.7089L16.0009 40.0018L15.2938 40.7089C12.6936 38.1088 12.6936 33.8931 15.2938 31.2929L16.708 32.7071Z">
</path>
<path   fill="rgba(255, 255, 255, 1)"  d="M11.708 32.7071C9.88889 34.5262 9.88889 37.4756 11.708 39.2947L11.708 39.2947L11.7081 39.2948L10.2939 40.709L10.2938 40.7089L11.0009 40.0018L10.2938 40.7089C7.69363 38.1088 7.69363 33.8931 10.2938 31.2929L11.708 32.7071Z">
</path>
<path   fill="rgba(255, 255, 255, 1)"  d="M54.294 32.7062C56.1131 34.5253 56.1131 37.4747 54.294 39.2938L54.294 39.2938L54.2938 39.2939L55.708 40.7081L55.7082 40.708L55.0011 40.0009L55.7082 40.708C58.3083 38.1078 58.3083 33.8922 55.7082 31.292L54.294 32.7062Z">
</path>
<path   fill="rgba(255, 255, 255, 1)"  d="M59.294 32.7062C61.1131 34.5253 61.1131 37.4747 59.294 39.2938L59.294 39.2938L59.2938 39.2939L60.708 40.7081L60.7082 40.708L60.0011 40.0009L60.7082 40.708C63.3083 38.1078 63.3083 33.8922 60.7082 31.292L59.294 32.7062Z">
</path>
</svg>
