<svg xmlns="http://www.w3.org/2000/svg" xmlns:xlink="http://www.w3.org/1999/xlink" width="70" height="70.00001525878906" viewBox="0 0 70 70.00001525878906" fill="none">
<rect  x="0" y="0" width="70" height="70" rx="2"    fill="#42AFFC" >
</rect>
<path fill-rule="evenodd"  fill="rgba(44, 146, 219, 1)"  d="M67.9998 0L2 0C0.895428 0 0 0.895431 0 2L0 68C0 69.1046 0.895428 70 2 70L67.9998 70C69.1044 70 69.9998 69.1046 69.9998 68L69.9998 2C69.9998 0.895431 69.1044 0 67.9998 0ZM0.999998 2C0.999998 1.44772 1.44771 1 2 1L67.9998 1C68.5521 1 68.9998 1.44772 68.9998 2L68.9998 68C68.9998 68.5523 68.5521 69 67.9998 69L2 69C1.44771 69 0.999998 68.5523 0.999998 68L0.999998 2Z">
</path>
<path d="M48 34L21 34C17.134 34 14 37.134 14 41C14 44.866 17.134 48 21 48L48 48C51.866 48 55 44.866 55 41C55 37.134 51.866 34 48 34ZM21 44C22.6569 44 24 42.6569 24 41C24 39.3431 22.6569 38 21 38C19.3431 38 18 39.3431 18 41C18 42.6569 19.3431 44 21 44ZM30 44C31.6569 44 33 42.6569 33 41C33 39.3431 31.6569 38 30 38C28.3431 38 27 39.3431 27 41C27 42.6569 28.3431 44 30 44ZM39 44C40.6569 44 42 42.6569 42 41C42 39.3431 40.6569 38 39 38C37.3431 38 36 39.3431 36 41C36 42.6569 37.3431 44 39 44ZM48 44C49.6569 44 51 42.6569 51 41C51 39.3431 49.6569 38 48 38C46.3431 38 45 39.3431 45 41C45 42.6569 46.3431 44 48 44Z" fill-rule="evenodd"  fill="#FFFFFF" >
</path>
<path     fill="#FFFFFF"  d="M22 26L38 26C39.1046 26 40 26.8954 40 28L40 32C40 33.1046 39.1046 34 38 34L20 34L20 28C20 26.8954 20.8954 26 22 26Z">
</path>
<rect  x="23" y="24" width="15" height="7" rx="2"    fill="#FFFFFF" >
</rect>
<rect x="38" y="32" width="7" height="2"   fill="#FFFFFF" >
</rect>
<rect x="35.36962890625" y="27.541748046875" width="26" height="2" transform="rotate(-21.698499956116997 35.36962890625 27.541748046875)"   fill="#FFFFFF" >
</rect>
<rect x="54.51171875" y="18.848480224609375" width="5" height="4" transform="rotate(-21.698499956116997 54.51171875 18.848480224609375)"   fill="#FFFFFF" >
</rect>
</svg>
