<svg xmlns="http://www.w3.org/2000/svg" xmlns:xlink="http://www.w3.org/1999/xlink" width="70.0009765625" height="70.00001525878906" viewBox="0 0 70.0009765625 70.00001525878906" fill="none">
<rect  x="0" y="0" width="70" height="70" rx="2"    fill="#42AFFC" >
</rect>
<path fill-rule="evenodd"  fill="rgba(44, 146, 219, 1)"  d="M67.9998 0L2 0C0.895428 0 0 0.895431 0 2L0 68C0 69.1046 0.895428 70 2 70L67.9998 70C69.1044 70 69.9998 69.1046 69.9998 68L69.9998 2C69.9998 0.895431 69.1044 0 67.9998 0ZM0.999998 2C0.999998 1.44772 1.44771 1 2 1L67.9998 1C68.5521 1 68.9998 1.44772 68.9998 2L68.9998 68C68.9998 68.5523 68.5521 69 67.9998 69L2 69C1.44771 69 0.999998 68.5523 0.999998 68L0.999998 2Z">
</path>
<path d="M15.26 27.93C20.0038 15.2765 29.4892 22.2586 26.1 30.66C34.5714 26.9976 47.8572 34.4537 53.55 37.65L51.17 37.65C51.17 37.65 58.0519 38.8206 61 39.32L51.17 41.65L57.27 40.98L51.17 42.98C48.0949 43.7541 37.6254 44.9806 24.41 42.65C11.1946 40.3194 17.9669 31.6588 20 30.66C22.0331 29.6612 20.3366 28.3312 19.32 29.33C18.3034 30.3288 12.2066 32.6588 11.19 31.66C10.3568 30.8414 12.4625 29.5971 14.2007 28.5699C14.5834 28.3438 14.9482 28.1282 15.26 27.93ZM21.0137 25.2552C21.0137 25.8069 20.5586 26.2541 19.9971 26.2541C19.4356 26.2541 18.9805 25.8069 18.9805 25.2552C18.9805 24.7036 19.4356 24.2564 19.9971 24.2564C20.5586 24.2564 21.0137 24.7036 21.0137 25.2552ZM19.0641 48.2398C19.252 48.2219 19.4227 48.153 19.5641 48.0482L20.4787 47.3954C21.0268 47.0042 21.6374 46.8203 22.3104 46.8437C22.9834 46.8671 23.5797 47.093 24.0994 47.5213Q25.1948 48.4242 26.6017 48.6131C27.5397 48.7391 28.4402 48.6081 29.3034 48.2201L30.1481 47.8405Q30.7797 47.5566 31.462 47.675C31.9169 47.754 32.3107 47.9535 32.6434 48.2736L32.8232 48.4467C33.1847 48.7944 33.5958 49.064 34.0568 49.2554C34.5035 49.4409 34.9692 49.5417 35.4538 49.5578C35.9384 49.5738 36.4098 49.5041 36.8678 49.3486C37.3404 49.1882 37.7685 48.9464 38.1521 48.6234C38.4678 48.3576 38.831 48.2051 39.2417 48.1659C39.6526 48.1267 40.038 48.2078 40.3982 48.4091L42.7327 49.7135C42.9064 49.8137 43.1117 49.8627 43.3266 49.8422C43.8764 49.7898 44.2795 49.3015 44.2271 48.7517C44.1942 48.4071 43.99 48.12 43.7068 47.9667L41.3739 46.6631C40.6506 46.2589 39.8765 46.0962 39.0517 46.1749C38.227 46.2536 37.4977 46.5598 36.864 47.0935C36.4755 47.4205 36.0276 47.5756 35.5201 47.5588C35.0126 47.542 34.5759 47.3575 34.21 47.0055L34.0301 46.8324C33.4032 46.2292 32.6612 45.8532 31.8041 45.7044C30.9469 45.5556 30.1216 45.6596 29.3282 46.0162L28.4835 46.3958C27.9673 46.6279 27.4288 46.7062 26.8679 46.6309C26.307 46.5556 25.8082 46.3379 25.3715 45.978Q24.7282 45.4477 23.9499 45.1568C23.4439 44.9677 22.9206 44.8637 22.3799 44.8449C21.8392 44.8261 21.3099 44.8935 20.7921 45.047C20.261 45.2045 19.7692 45.4446 19.3168 45.7675L18.4037 46.4192C18.1138 46.6182 17.9378 46.9644 17.9736 47.3393C18.026 47.8891 18.5143 48.2923 19.0641 48.2398Z" fill-rule="evenodd"  fill="#FFFFFF" >
</path>
</svg>
