<svg xmlns="http://www.w3.org/2000/svg" xmlns:xlink="http://www.w3.org/1999/xlink" width="70.00048828125" height="70.00001525878906" viewBox="0 0 70.00048828125 70.00001525878906" fill="none">
<rect  x="0" y="0" width="70" height="70" rx="2"    fill="#42AFFC" >
</rect>
<path fill-rule="evenodd"  fill="rgba(44, 146, 219, 1)"  d="M67.9998 0L2 0C0.895428 0 0 0.895431 0 2L0 68C0 69.1046 0.895428 70 2 70L67.9998 70C69.1044 70 69.9998 69.1046 69.9998 68L69.9998 2C69.9998 0.895431 69.1044 0 67.9998 0ZM0.999998 2C0.999998 1.44772 1.44771 1 2 1L67.9998 1C68.5521 1 68.9998 1.44772 68.9998 2L68.9998 68C68.9998 68.5523 68.5521 69 67.9998 69L2 69C1.44771 69 0.999998 68.5523 0.999998 68L0.999998 2Z">
</path>
<path d="M39 34.987C39 37.1961 37.2091 38.987 35 38.987C32.7909 38.987 31 37.1961 31 34.987C31 32.7779 32.7909 30.987 35 30.987C37.2091 30.987 39 32.7779 39 34.987Z"   fill="#FFFFFF" >
</path>
<path d="M39 34.987C39 37.1961 37.2091 38.987 35 38.987C32.7909 38.987 31 37.1961 31 34.987C31 32.7779 32.7909 30.987 35 30.987C37.2091 30.987 39 32.7779 39 34.987Z"   fill="#FFFFFF" >
</path>
<path d="M36 27.987C36 28.5393 35.5523 28.987 35 28.987C34.4477 28.987 34 28.5393 34 27.987C34 27.4347 34.4477 26.987 35 26.987C35.5523 26.987 36 27.4347 36 27.987Z"   fill="#FFFFFF" >
</path>
<path d="M43 34.987C43 35.5393 42.5523 35.987 42 35.987C41.4477 35.987 41 35.5393 41 34.987C41 34.4347 41.4477 33.987 42 33.987C42.5523 33.987 43 34.4347 43 34.987Z"   fill="#FFFFFF" >
</path>
<path d="M36 41.987C36 42.5393 35.5523 42.987 35 42.987C34.4477 42.987 34 42.5393 34 41.987C34 41.4347 34.4477 40.987 35 40.987C35.5523 40.987 36 41.4347 36 41.987Z"   fill="#FFFFFF" >
</path>
<path d="M29 34.987C29 35.5393 28.5523 35.987 28 35.987C27.4477 35.987 27 35.5393 27 34.987C27 34.4347 27.4477 33.987 28 33.987C28.5523 33.987 29 34.4347 29 34.987Z"   fill="#FFFFFF" >
</path>
<path d="M31 29.987C31 30.5393 30.5523 30.987 30 30.987C29.4477 30.987 29 30.5393 29 29.987C29 29.4347 29.4477 28.987 30 28.987C30.5523 28.987 31 29.4347 31 29.987Z"   fill="#FFFFFF" >
</path>
<path d="M31 39.987C31 40.5393 30.5523 40.987 30 40.987C29.4477 40.987 29 40.5393 29 39.987C29 39.4347 29.4477 38.987 30 38.987C30.5523 38.987 31 39.4347 31 39.987Z"   fill="#FFFFFF" >
</path>
<path d="M41 29.987C41 30.5393 40.5523 30.987 40 30.987C39.4477 30.987 39 30.5393 39 29.987C39 29.4347 39.4477 28.987 40 28.987C40.5523 28.987 41 29.4347 41 29.987Z"   fill="#FFFFFF" >
</path>
<path d="M41 39.987C41 40.5393 40.5523 40.987 40 40.987C39.4477 40.987 39 40.5393 39 39.987C39 39.4347 39.4477 38.987 40 38.987C40.5523 38.987 41 39.4347 41 39.987Z"   fill="#FFFFFF" >
</path>
<path d="M33.582 25.4C33.0058 24.1238 32.7833 22.6707 33.0188 21.1844C33.2074 19.994 33.6689 18.9146 34.3293 18C26.5832 18.3005 20.167 23.7839 18.4511 31.08C19.7852 33.609 22.6814 34.8083 25.3517 34.0818C25.7646 29.6249 29.1958 26.0432 33.582 25.4ZM35.8198 25.3312C40.2117 25.6991 43.7707 28.9962 44.537 33.2626C47.0258 32.2994 49.7586 32.576 51.9635 33.8646C51.4285 25.6553 45.0663 19.0354 36.9724 18.1002C35.9488 18.9162 35.2152 20.1025 34.9942 21.4974C34.7738 22.8886 35.1024 24.2401 35.8198 25.3312ZM51.9496 36.3064C49.9892 34.5994 47.1236 34.1611 44.682 35.3834C44.4965 39.9945 41.0888 43.7759 36.6494 44.5372C37.5027 45.8095 38.0005 47.3402 38.0005 48.9872C38.0005 49.9794 37.8199 50.9293 37.4898 51.806C45.2718 50.6639 51.3399 44.2492 51.9496 36.3064ZM35.1985 51.9859C35.7086 51.1037 36.0005 50.0796 36.0005 48.9872C36.0005 47.2759 35.2838 45.7319 34.1343 44.6389C29.5666 44.2344 25.9096 40.6607 25.3768 36.131C22.706 36.6763 19.9293 35.8142 18.0358 33.8746C18.0121 34.2423 18 34.6133 18 34.987C18 44.3758 25.6112 51.987 35 51.987C35.0663 51.987 35.1325 51.9866 35.1985 51.9859Z" fill-rule="evenodd"  fill="#FFFFFF" >
</path>
<path d="M43 51.487L60.5 51.487L55 48.987L63.5 43.987L54 45.987L56.5 40.487L43 51.487Z"   fill="#FFFFFF" >
</path>
</svg>
