<svg xmlns="http://www.w3.org/2000/svg" xmlns:xlink="http://www.w3.org/1999/xlink" width="70.00048828125" height="70.00001525878906" viewBox="0 0 70.00048828125 70.00001525878906" fill="none">
<rect  x="0" y="0" width="70" height="70" rx="2"    fill="#42AFFC" >
</rect>
<path fill-rule="evenodd"  fill="rgba(44, 146, 219, 1)"  d="M67.9998 0L2 0C0.895428 0 0 0.895431 0 2L0 68C0 69.1046 0.895428 70 2 70L67.9998 70C69.1044 70 69.9998 69.1046 69.9998 68L69.9998 2C69.9998 0.895431 69.1044 0 67.9998 0ZM0.999998 2C0.999998 1.44772 1.44771 1 2 1L67.9998 1C68.5521 1 68.9998 1.44772 68.9998 2L68.9998 68C68.9998 68.5523 68.5521 69 67.9998 69L2 69C1.44771 69 0.999998 68.5523 0.999998 68L0.999998 2Z">
</path>
<path d="M34.848 15.5182C38.5855 11.3571 44.6156 32.7745 46.998 41.9982C49.3804 51.222 32.3179 52.0193 31.498 47.9982C30.6782 43.9772 30.1854 44.4813 26.448 43.2582C17.998 40.9782 14.998 39.4999 14.998 35.0882C14.998 31.1221 20.4751 31.0103 23.618 31.1282C24.1989 31.15 24.7305 30.8131 24.958 30.2782L26.548 26.5282C27.2012 24.9927 28.7094 23.9982 30.378 23.9982L32.078 23.9982C32.5887 23.9982 32.998 23.5865 33.048 23.0782C33.3052 20.467 34.4747 16.6883 34.848 15.5182ZM32.0034 32C30.8989 32 30.0034 31.1046 30.0034 30C30.0034 28.8955 30.8989 28 32.0034 28C33.108 28 34.0034 28.8955 34.0034 30C34.0034 31.1046 33.108 32 32.0034 32Z" fill-rule="evenodd"  fill="#FFFFFF" >
</path>
</svg>
