<svg xmlns="http://www.w3.org/2000/svg" xmlns:xlink="http://www.w3.org/1999/xlink" width="70.00048828125" height="70.00001525878906" viewBox="0 0 70.00048828125 70.00001525878906" fill="none">
<rect  x="0" y="0" width="70" height="70" rx="2"    fill="#42AFFC" >
</rect>
<path fill-rule="evenodd"  fill="rgba(44, 146, 219, 1)"  d="M67.9998 0L2 0C0.895428 0 0 0.895431 0 2L0 68C0 69.1046 0.895428 70 2 70L67.9998 70C69.1044 70 69.9998 69.1046 69.9998 68L69.9998 2C69.9998 0.895431 69.1044 0 67.9998 0ZM0.999998 2C0.999998 1.44772 1.44771 1 2 1L67.9998 1C68.5521 1 68.9998 1.44772 68.9998 2L68.9998 68C68.9998 68.5523 68.5521 69 67.9998 69L2 69C1.44771 69 0.999998 68.5523 0.999998 68L0.999998 2Z">
</path>
<path d="M37.9005 26.92C36.4168 23.3123 33.0105 15.4273 24.6305 23.54C24.5882 23.5809 24.533 23.6235 24.4805 23.65L17.7905 27.03C17.4935 27.1799 17.6433 27.6301 17.9705 27.57L25.2905 26.22C25.3682 26.2057 25.4535 26.2118 25.5305 26.23C26.6939 26.5056 29.0465 27.1901 26.8405 30.81C25.4117 33.1545 28.793 37.9854 31.2396 41.4809C32.6996 43.5668 33.8268 45.1772 33.4005 45.5C32.9556 45.8369 32.6668 46.1389 32.4905 46.4C32.2577 46.7447 31.7863 47.22 31.3705 47.22L30.0405 47.22C29.9954 47.22 29.9507 47.2297 29.9105 47.25C29.6398 47.3867 29.7372 47.8 30.0405 47.8L33.5005 47.8C33.7597 47.8 33.8418 47.4468 33.6105 47.33C33.4898 47.2691 33.4405 47.1212 33.5005 47L33.9705 46.07L34.1605 45.57C34.325 45.1546 34.8778 45.076 35.1505 45.43L41.8405 54.12C42.0217 54.3554 42.4045 54.1938 42.3605 53.9L41.0905 45.5L42.5305 50.45C42.623 50.7703 43.0905 50.7034 43.0905 50.37L43.0905 41.85C43.0905 41.5644 43.4631 41.4517 43.6205 41.69L44.3605 42.81C44.5094 43.0357 44.8556 42.9492 44.8805 42.68C45.2107 39.0989 45.3482 32.2267 38.1105 27.17C38.0185 27.1057 37.9431 27.0238 37.9005 26.92ZM30.0005 25C30.5527 25 31.0005 24.5523 31.0005 24C31.0005 23.4477 30.5527 23 30.0005 23C29.4482 23 29.0005 23.4477 29.0005 24C29.0005 24.5523 29.4482 25 30.0005 25Z" fill-rule="evenodd"  fill="#F8F9FD" >
</path>
</svg>
