<svg xmlns="http://www.w3.org/2000/svg" xmlns:xlink="http://www.w3.org/1999/xlink" width="70" height="70.00001525878906" viewBox="0 0 70 70.00001525878906" fill="none">
<rect  x="0" y="0" width="70" height="70" rx="2"    fill="#42AFFC" >
</rect>
<path fill-rule="evenodd"  fill="rgba(44, 146, 219, 1)"  d="M67.9998 0L2 0C0.895428 0 0 0.895431 0 2L0 68C0 69.1046 0.895428 70 2 70L67.9998 70C69.1044 70 69.9998 69.1046 69.9998 68L69.9998 2C69.9998 0.895431 69.1044 0 67.9998 0ZM0.999998 2C0.999998 1.44772 1.44771 1 2 1L67.9998 1C68.5521 1 68.9998 1.44772 68.9998 2L68.9998 68C68.9998 68.5523 68.5521 69 67.9998 69L2 69C1.44771 69 0.999998 68.5523 0.999998 68L0.999998 2Z">
</path>
<path d="M35.0557 19.43C43.1502 13.4087 39.1972 20.13 37.4919 23.0295L37.4857 23.0401C38.2961 25.8534 37.162 27.5466 36.6757 28.2701C42.754 25.8586 43.8894 29.2332 44.3757 30.68C48.2415 39.4988 47.3847 46.567 46.8757 49.92C46.8308 50.216 46.6554 50.465 46.4057 50.6301C45.6307 51.1425 44.5497 50.4691 44.5357 49.5401C44.471 45.2394 42.7497 40.5403 41.9357 38.32L39.1057 39.5201L37.9557 54.37C37.9167 54.8722 37.5739 55.302 37.0957 55.46C36.2871 55.7274 35.4557 55.1217 35.4557 54.2701L35.4557 53.71C35.4557 53.631 35.447 53.5483 35.4357 53.4701L33.8357 42.34L34.5357 52.0601C34.5951 52.8847 33.9424 53.59 33.1157 53.59C32.3768 53.59 31.7593 53.0262 31.6957 52.2901L30.5957 39.5201C29.9879 38.3746 28.9748 35.1015 30.5957 32.69C32.2166 30.2786 30.5966 23.85 28.9757 23.85C27.5412 23.85 26.2615 20.9854 25.5657 19.24C25.4663 18.9908 25.6991 18.7417 25.9557 18.82L30.5957 20.23C32.2138 18.6248 34.1987 19.1872 35.0519 19.429L35.0557 19.43ZM35.4999 22.6301C35.7761 22.6301 35.9999 22.8539 35.9999 23.1301L35.9999 23.5301C35.9999 23.8062 35.7761 24.0301 35.4999 24.0301C35.2238 24.0301 35 23.8062 35 23.5301L35 23.1301C35 22.8539 35.2238 22.6301 35.4999 22.6301ZM32.2705 23.7392C32.2221 23.8397 32.1192 23.9091 32.0002 23.9091C31.8345 23.9091 31.7002 23.7748 31.7002 23.6091C31.7002 23.5582 31.7128 23.5104 31.7351 23.4684C32.0535 22.8439 32.9469 22.8439 33.2652 23.4684C33.2876 23.5104 33.3002 23.5582 33.3002 23.6091C33.3002 23.7748 33.1659 23.9091 33.0002 23.9091C32.8812 23.9091 32.7783 23.8397 32.7298 23.7392C32.6333 23.5536 32.3671 23.5536 32.2705 23.7392ZM34.3202 25.0753C34.4367 25.0082 34.5861 25.0523 34.6402 25.1754C34.671 25.2453 34.6621 25.3314 34.6202 25.3953L34.4902 25.5954C34.4596 25.6422 34.4197 25.6788 34.3749 25.7048L34.3738 26.3198Q34.4674 26.2952 34.5523 26.2352C34.6479 26.1676 34.7208 26.0763 34.7711 25.9612L34.7935 25.9098C34.8152 25.8575 34.8617 25.8214 34.9156 25.8214C34.9902 25.8214 35.0507 25.8906 35.0507 25.976C35.0507 26.0019 35.0451 26.0264 35.0352 26.0479L35.0127 26.0995Q34.903 26.3506 34.6943 26.4983Q34.4856 26.6459 34.2403 26.6459Q33.9949 26.6459 33.7862 26.4983Q33.5775 26.3506 33.4678 26.0995L33.4453 26.0479C33.4354 26.0264 33.4298 26.0019 33.4298 25.976C33.4298 25.8906 33.4903 25.8214 33.5649 25.8214C33.6188 25.8214 33.6653 25.8575 33.687 25.9098L33.7095 25.9612Q33.7849 26.1338 33.9283 26.2352Q34.0117 26.2943 34.1037 26.3189L34.1047 25.7392C34.0433 25.7221 33.9859 25.6877 33.9402 25.6353L33.8502 25.5354C33.8105 25.4899 33.7902 25.4256 33.7902 25.3653C33.7902 25.2277 33.9025 25.1153 34.0402 25.1153L34.1702 25.1153C34.214 25.1153 34.2622 25.1072 34.3002 25.0854L34.3202 25.0753Z" fill-rule="evenodd"  fill="#FFFFFF" >
</path>
</svg>
