<svg xmlns="http://www.w3.org/2000/svg" xmlns:xlink="http://www.w3.org/1999/xlink" width="70.00048828125" height="70.00001525878906" viewBox="0 0 70.00048828125 70.00001525878906" fill="none">
<rect  x="0" y="0" width="70" height="70" rx="2"    fill="#42AFFC" >
</rect>
<path fill-rule="evenodd"  fill="rgba(44, 146, 219, 1)"  d="M67.9998 0L2 0C0.895428 0 0 0.895431 0 2L0 68C0 69.1046 0.895428 70 2 70L67.9998 70C69.1044 70 69.9998 69.1046 69.9998 68L69.9998 2C69.9998 0.895431 69.1044 0 67.9998 0ZM0.999998 2C0.999998 1.44772 1.44771 1 2 1L67.9998 1C68.5521 1 68.9998 1.44772 68.9998 2L68.9998 68C68.9998 68.5523 68.5521 69 67.9998 69L2 69C1.44771 69 0.999998 68.5523 0.999998 68L0.999998 2Z">
</path>
<path d="M22.9321 18C24.8791 18 27.1226 20.283 28.1821 22.18C28.4086 22.5855 28.9023 22.7963 29.3321 22.62C31.4928 21.7335 35.36 20.5095 39.5621 22.61C39.9227 22.7903 40.3622 22.7302 40.6521 22.45C42.7558 20.4162 48.0021 17.4142 48.0021 19.5C48.0021 21.5971 47.5993 24.1886 47.1221 26.23C47.0487 26.5441 47.038 26.8347 47.1421 27.14C49.2907 33.44 49.2854 37.6414 48.2637 40.4425Q49.842 39.9332 51.3781 38.7701C51.4433 38.7197 51.5245 38.6897 51.6127 38.6897C51.8266 38.6897 52.0001 38.866 52.0001 39.0835C52.0001 39.2144 51.9372 39.3305 51.8404 39.4021Q49.8943 40.8753 47.8631 41.3733C47.742 41.6149 47.6124 41.8439 47.4756 42.0611Q49.6356 42.2288 51.71 42.8249C51.8768 42.8687 52.0001 43.0228 52.0001 43.2061C52.0001 43.4236 51.8266 43.5999 51.6127 43.5999C51.5731 43.5999 51.5347 43.5938 51.4987 43.5826Q49.4566 42.9958 47.3279 42.8397Q47.1349 42.8255 46.9358 42.8145C46.7556 43.0365 46.567 43.2432 46.3719 43.4357Q48.6478 44.0735 51.196 45.5394C51.3169 45.606 51.3991 45.7361 51.3991 45.8858C51.3991 46.1033 51.2257 46.2796 51.0118 46.2796C50.94 46.2796 50.8727 46.2597 50.815 46.2251Q48.2482 44.7484 45.9866 44.1458Q45.8206 44.1016 45.6536 44.0616C43.0176 46.0892 39.6477 46.0404 38.991 46.0309C38.9575 46.0304 38.931 46.03 38.9121 46.03C38.7252 46.03 38.4536 46.1336 38.1321 46.3C35.8907 47.4601 33.2775 47.843 31.1221 46.53C30.8875 46.3871 30.6335 46.2919 30.3621 46.25C27.7172 45.8413 25.7458 45.0481 24.294 44.0025Q23.7342 44.1021 23.1861 44.2482Q20.94 44.8465 18.3872 46.3149C18.3121 46.36 18.2242 46.3859 18.1303 46.3859C17.8542 46.3859 17.6303 46.162 17.6303 45.8859C17.6303 45.6971 17.7349 45.5328 17.8893 45.4477Q20.5557 43.914 22.9286 43.2819Q23.1199 43.2309 23.3125 43.1852C23.2118 43.088 23.1144 42.9894 23.0203 42.8892Q22.3942 42.9037 21.8226 42.9456Q19.7074 43.1007 17.6782 43.6834C17.6311 43.6982 17.581 43.7061 17.529 43.7061C17.2528 43.7061 17.029 43.4822 17.029 43.2061C17.029 42.974 17.1871 42.7789 17.4014 42.7225Q19.5305 42.1109 21.7494 41.9483Q21.9885 41.9307 22.2365 41.9178C22.1721 41.8243 22.1099 41.7299 22.0499 41.6347Q21.8683 41.6069 21.6912 41.5728Q19.4066 41.1319 17.2317 39.4856C17.1087 39.3945 17.029 39.2483 17.029 39.0835C17.029 38.8074 17.2528 38.5835 17.529 38.5835C17.6441 38.5835 17.7502 38.6224 17.8347 38.6878Q19.6149 40.0355 21.4485 40.495C19.7086 36.503 21.0018 31.4756 21.7768 28.463C21.8025 28.3631 21.8277 28.2654 21.8521 28.17C21.8981 27.9905 21.9063 27.8021 21.8721 27.62C21.29 24.524 20.7764 18 22.9321 18ZM29.0012 36.61C30.659 36.61 32.0029 35.2256 32.0029 33.518C32.0029 31.8103 30.659 30.426 29.0012 30.426C27.3433 30.426 25.9994 31.8103 25.9994 33.518C25.9994 35.2256 27.3433 36.61 29.0012 36.61ZM40.1814 36.614C41.8392 36.614 43.1831 35.2296 43.1831 33.522C43.1831 31.8143 41.8392 30.43 40.1814 30.43C38.5235 30.43 37.1796 31.8143 37.1796 33.522C37.1796 35.2296 38.5235 36.614 40.1814 36.614ZM42.1796 31.6628C42.5177 31.6628 42.7918 31.9316 42.7918 32.2632C42.7918 32.5948 42.5177 32.8636 42.1796 32.8636C41.8415 32.8636 41.5674 32.5948 41.5674 32.2632C41.5674 31.9316 41.8415 31.6628 42.1796 31.6628ZM29.9721 31.6992C30.3102 31.6992 30.5843 31.968 30.5843 32.2996C30.5843 32.6312 30.3102 32.9 29.9721 32.9C29.634 32.9 29.3599 32.6312 29.3599 32.2996C29.3599 31.968 29.634 31.6992 29.9721 31.6992ZM40.9868 33.7241C41.5404 33.7241 41.9892 34.1855 41.9892 34.7547C41.9892 35.324 41.5404 35.7854 40.9868 35.7854C40.4332 35.7854 39.9844 35.324 39.9844 34.7547C39.9844 34.1855 40.4332 33.7241 40.9868 33.7241ZM28.7524 33.7287C29.306 33.7287 29.7548 34.1901 29.7548 34.7593C29.7548 35.3286 29.306 35.79 28.7524 35.79C28.1988 35.79 27.75 35.3286 27.75 34.7593C27.75 34.1901 28.1988 33.7287 28.7524 33.7287ZM36.2244 37.8468L32.9244 37.8468C32.4034 37.8468 32.1333 38.4618 32.4844 38.8468L34.0964 40.6259C34.0574 40.7701 34.0188 40.8948 33.9806 41Q33.8022 41.4907 33.5257 41.8419Q32.7615 42.8124 31.1622 42.8124C30.9483 42.8124 30.7749 42.9887 30.7749 43.2062C30.7749 43.4237 30.9483 43.6 31.1622 43.6L31.1628 43.6Q33.1338 43.5998 34.1304 42.334Q34.3845 42.0113 34.5704 41.6067Q34.7564 42.0113 35.0105 42.334Q36.0071 43.5998 37.9781 43.6L37.9787 43.6C38.1926 43.6 38.366 43.4237 38.366 43.2062C38.366 42.9887 38.1926 42.8124 37.9787 42.8124Q36.3794 42.8124 35.6152 41.8419C35.4309 41.6077 35.2793 41.3271 35.1603 41C35.1219 40.8944 35.0832 40.7691 35.044 40.6243L36.6644 38.8468C37.0154 38.4618 36.7454 37.8468 36.2244 37.8468Z" fill-rule="evenodd"  fill="#FFFFFF" >
</path>
</svg>
