<svg xmlns="http://www.w3.org/2000/svg" xmlns:xlink="http://www.w3.org/1999/xlink" width="40" height="40" viewBox="0 0 40 40" fill="none">
<g opacity="0">
<rect x="0" y="0" width="40" height="40"   fill="#CCCCCC" >
</rect>
</g>
<path d="M20.2495 15L20.2495 31.6489C17.0122 31.6489 14.6066 27.4123 14.6066 27.4123L11.925 27.4123C11.4141 27.4123 11 26.9982 11 26.4873L11 20.0922C11 19.5813 11.4141 19.1672 11.925 19.1672L14.6066 19.1672C14.6066 19.1672 17.0122 15 20.2495 15Z" stroke="rgba(255, 255, 255, 1.00)" stroke-width="2" stroke-linejoin="round"  >
</path>
<path    stroke="rgba(255, 255, 255, 1.00)" stroke-width="2" stroke-linejoin="round" stroke-linecap="round"  d="M23.9521 19.1626C24.2404 19.42 24.5016 19.7082 24.731 20.0222C25.4037 20.9433 25.8021 22.0865 25.8021 23.3248C25.8021 24.5525 25.4106 25.6865 24.7484 26.6034C24.5149 26.9268 24.2477 27.2231 23.9521 27.4871">
</path>
<path    stroke="rgba(255, 255, 255, 1.00)" stroke-width="2"  stroke-linecap="round"  d="M24.9834 31.2722C27.6878 29.658 29.4991 26.7026 29.4991 23.3243C29.4991 19.9985 27.7436 17.0826 25.1088 15.4526">
</path>
</svg>
