<svg xmlns="http://www.w3.org/2000/svg" xmlns:xlink="http://www.w3.org/1999/xlink" width="40" height="40" viewBox="0 0 40 40" fill="none">
<path d="M0 0L40 0L40 40L0 40L0 0Z"   fill="#FFFFFF" fill-opacity="0">
</path>
<path d="M14.4255 15.7339C13.9114 15.863 13.389 16.1172 12.8584 16.4964C12.2973 16.8972 11.7893 17.3933 11.3341 17.9846C10.866 18.5928 10.5023 19.2398 10.243 19.9258C9.97572 20.6326 9.8421 21.324 9.8421 22C9.8421 22.7313 9.95131 23.4486 10.1697 24.1518C10.3875 24.853 10.6982 25.4896 11.1019 26.0617C11.5091 26.639 11.9858 27.1134 12.5319 27.485C13.0907 27.8653 13.7004 28.1213 14.361 28.2531C15.0238 28.3705 15.5263 28.9358 15.5263 29.6154C15.5263 30.3801 14.8901 31 14.1053 31C13.9986 31 13.8947 30.9885 13.7947 30.9669C12.7491 30.7588 11.7857 30.355 10.9046 29.7554C10.0767 29.192 9.3618 28.4837 8.75982 27.6306C8.18932 26.822 7.75253 25.9298 7.44945 24.9539C7.14982 23.9891 7 23.0045 7 22C7 20.9947 7.19202 19.9842 7.57606 18.9685C7.93124 18.0291 8.42603 17.1473 9.06043 16.3231C9.68422 15.5127 10.39 14.8261 11.1776 14.2632C12.0056 13.6717 12.8548 13.2672 13.7254 13.05C13.8463 13.0174 13.9737 13 14.1053 13C14.8901 13 15.5263 13.6199 15.5263 14.3846C15.5263 15.042 15.0561 15.5924 14.4255 15.7339Z" fill-rule="evenodd"  fill="#FFFFFF" >
</path>
<path d="M26.5745 15.7339C27.0886 15.863 27.611 16.1172 28.1416 16.4964C28.7027 16.8972 29.2107 17.3933 29.6659 17.9846C30.134 18.5928 30.4977 19.2398 30.757 19.9258C31.0243 20.6326 31.1579 21.324 31.1579 22C31.1579 22.7313 31.0487 23.4486 30.8303 24.1518C30.6125 24.853 30.3018 25.4896 29.8981 26.0617C29.4909 26.639 29.0142 27.1134 28.4681 27.485C27.9093 27.8653 27.2996 28.1213 26.639 28.2531C25.9762 28.3705 25.4737 28.9358 25.4737 29.6154C25.4737 30.3801 26.1099 31 26.8947 31C27.0014 31 27.1053 30.9885 27.2053 30.9669C28.2509 30.7588 29.2143 30.355 30.0954 29.7554C30.9233 29.192 31.6382 28.4837 32.2402 27.6306C32.8107 26.822 33.2475 25.9298 33.5505 24.9539C33.8502 23.9891 34 23.0045 34 22C34 20.9947 33.808 19.9842 33.4239 18.9685C33.0688 18.0291 32.574 17.1473 31.9396 16.3231C31.3158 15.5127 30.61 14.8261 29.8224 14.2632C28.9944 13.6717 28.1452 13.2672 27.2746 13.05C27.1537 13.0174 27.0263 13 26.8947 13C26.1099 13 25.4737 13.6199 25.4737 14.3846C25.4737 15.042 25.9439 15.5924 26.5745 15.7339Z" fill-rule="evenodd"  fill="#FFFFFF" >
</path>
<path d="M15.9403 17.5585C15.3853 18.0992 15.3853 18.9758 15.9403 19.5164L23.0457 26.4378C23.6007 26.9784 24.5006 26.9784 25.0556 26.4378C25.6106 25.8971 25.6106 25.0205 25.0556 24.4799L17.9503 17.5585C17.3953 17.0179 16.4954 17.0179 15.9403 17.5585Z" fill-rule="evenodd"  fill="#FFFFFF" >
</path>
<path d="M25.0575 17.5591C24.5025 17.0185 23.6026 17.0185 23.0476 17.5591L15.9423 24.4805C15.3873 25.0211 15.3873 25.8977 15.9423 26.4384C16.4973 26.979 17.3972 26.979 17.9522 26.4384L25.0575 19.517C25.6126 18.9764 25.6126 18.0998 25.0575 17.5591Z" fill-rule="evenodd"  fill="#FFFFFF" >
</path>
</svg>
