<svg xmlns="http://www.w3.org/2000/svg" xmlns:xlink="http://www.w3.org/1999/xlink" width="40" height="40" viewBox="0 0 40 40" fill="none">
<path d="M0 0L40 0L40 40L0 40L0 0Z"   fill="#FFFFFF" fill-opacity="0">
</path>
<path     fill="#FFFFFF"  d="M12.1522 33.3909L12.1522 33.3909C11.8774 34.2906 12.5504 35.1999 13.4911 35.1999L26.5185 35.1999C27.4561 35.1999 28.1287 34.2962 27.8596 33.398L27.8596 33.398C27.682 32.8056 27.1369 32.3999 26.5185 32.3999L13.4911 32.3999C12.8755 32.3999 12.3321 32.8021 12.1522 33.3909Z">
</path>
<path     fill="#FFFFFF"  d="M20.0783 18.9443C16.8723 18.9443 14.2683 21.5483 14.2683 24.7543L14.2683 30.4943C14.2683 31.2675 14.8951 31.8943 15.6683 31.8943L24.5723 31.8943C25.3455 31.8943 25.9723 31.2675 25.9723 30.4943L25.9723 24.7543C25.9723 21.5483 23.3683 18.9443 20.1623 18.9443L20.0783 18.9443ZM24.8663 23.9983C24.8663 24.1803 24.7683 24.3343 24.6143 24.4323C24.4603 24.5163 24.2643 24.5163 24.1103 24.4323C23.9563 24.3483 23.8583 24.1803 23.8583 23.9983C23.5029 22.0384 22.2063 21.2683 20.1903 21.2683L20.1063 21.2683C19.8263 21.2683 19.6023 21.0443 19.6023 20.7643C19.6023 20.4843 19.8263 20.2603 20.1063 20.2603L20.1903 20.2603C22.7663 20.2603 24.8663 22.0382 24.8663 23.9983ZM13.3303 22.4303C13.3863 22.1783 13.3303 21.9263 13.1903 21.7163C13.0503 21.5063 12.8403 21.3663 12.5883 21.3103L9.84434 20.7643C9.53634 20.7083 9.22834 20.7923 9.00434 21.0023C8.78034 21.2123 8.68234 21.5203 8.72434 21.8283C8.78034 22.2063 9.07434 22.5283 9.48034 22.6123L12.2243 23.1583C12.7283 23.2703 13.2323 22.9343 13.3303 22.4303ZM12.7003 16.0743L14.4503 18.2583C14.7723 18.6643 15.3743 18.7343 15.7803 18.4123C15.9763 18.2583 16.1023 18.0203 16.1303 17.7823C16.1583 17.5303 16.0883 17.2783 15.9343 17.0823L14.1843 14.8983C13.8623 14.4923 13.2603 14.4223 12.8543 14.7443C12.4343 15.0803 12.3783 15.6683 12.7003 16.0743ZM20.2323 16.9003C20.7503 16.9003 21.1983 16.4943 21.1983 15.9763L21.1843 13.1763C21.1843 12.6583 20.7783 12.2103 20.2603 12.2103C19.7423 12.1963 19.2943 12.6163 19.2943 13.1343L19.2943 15.9343C19.2943 16.1863 19.3783 16.4243 19.5603 16.6063C19.7423 16.7883 19.9803 16.9003 20.2323 16.9003ZM24.6143 18.6223C24.7963 18.7903 25.0483 18.8603 25.3003 18.8603C25.5523 18.8603 25.7903 18.7343 25.9443 18.5383L27.7923 16.4383C28.1143 16.0463 28.0723 15.4583 27.6803 15.1223C27.2883 14.7863 26.7143 14.8143 26.3643 15.1783L24.5163 17.2783L24.4743 17.3203C24.4743 17.3203 24.4463 17.3481 24.4463 17.3623C24.4463 17.3765 24.4183 17.3896 24.4183 17.4043C24.4183 17.419 24.3903 17.4312 24.3903 17.4463C24.3903 17.4615 24.3763 17.4727 24.3763 17.4883C24.3763 17.5039 24.3483 17.5284 24.3483 17.5443C24.3483 17.5603 24.3343 17.5701 24.3343 17.5863C24.3343 17.6026 24.3203 17.6258 24.3203 17.6423C24.3203 17.6589 24.3063 17.6675 24.3063 17.6843C24.3063 17.7011 24.2923 17.7233 24.2923 17.7403C24.2923 17.7573 24.2783 17.7792 24.2783 17.7963C24.2783 17.8134 24.2783 17.8211 24.2783 17.8383C24.2783 17.8555 24.2783 17.8771 24.2783 17.8943C24.2783 17.9115 24.2783 17.9331 24.2783 17.9503C24.2783 17.9675 24.2783 17.9751 24.2783 17.9923C24.2783 18.0095 24.2923 18.0313 24.2923 18.0483C24.3343 18.2583 24.4463 18.4683 24.6143 18.6223ZM31.5023 22.0383C31.4183 21.5203 30.9423 21.1703 30.4243 21.2403L27.6663 21.6603C27.3163 21.7023 27.0223 21.9263 26.8963 22.2483C26.7703 22.5703 26.8263 22.9343 27.0503 23.2143C27.2743 23.4803 27.6243 23.6063 27.9603 23.5363L30.7183 23.1163C30.9703 23.0743 31.1943 22.9483 31.3343 22.7383C31.4883 22.5423 31.5443 22.2903 31.5023 22.0383Z">
</path>
</svg>
