<svg xmlns="http://www.w3.org/2000/svg" xmlns:xlink="http://www.w3.org/1999/xlink" width="40" height="40" viewBox="0 0 40 40" fill="none">
<path d="M0 0L40 0L40 40L0 40L0 0Z"   fill="#FFFFFF" fill-opacity="0">
</path>
<path d="M19.7917 28.324C22.2331 28.324 24.2122 26.3094 24.2122 23.8243C24.2122 21.3393 22.2331 19.3247 19.7917 19.3247C17.3503 19.3247 15.3711 21.3393 15.3711 23.8243C15.3711 26.3094 17.3503 28.324 19.7917 28.324ZM19.7917 22.3245C20.6055 22.3245 21.2652 22.996 21.2652 23.8243C21.2652 24.6527 20.6055 25.3242 19.7917 25.3242C18.9779 25.3242 18.3181 24.6527 18.3181 23.8243C18.3181 22.996 18.9779 22.3245 19.7917 22.3245Z" fill-rule="evenodd"  fill="#FFFFFF" >
</path>
<path d="M14.8068 18.9322C14.3617 19.4908 14.0169 20.1236 13.7726 20.8306C13.5155 21.5745 13.387 22.3525 13.387 23.1646C13.387 23.9767 13.5155 24.7547 13.7726 25.4987C14.0169 26.2057 14.3617 26.8385 14.8068 27.397C15.0173 27.6564 15.1437 27.9891 15.1437 28.3518C15.1437 29.1802 14.4844 29.8517 13.671 29.8517C13.2053 29.8517 12.79 29.6315 12.5201 29.2879C11.8602 28.46 11.3516 27.5289 10.9941 26.4945C10.6256 25.4283 10.4414 24.3184 10.4414 23.1646C10.4414 22.0109 10.6256 20.9009 10.9941 19.8347C11.3516 18.8003 11.8603 17.8692 12.5202 17.0413C12.7901 16.6977 13.2053 16.4775 13.671 16.4775C14.4844 16.4775 15.1437 17.1491 15.1437 17.9774C15.1437 18.3402 15.0173 18.6729 14.8068 18.9322Z" fill-rule="evenodd"  fill="#FFFFFF" >
</path>
<path d="M25.0946 18.8546C25.5397 19.4131 25.8844 20.0459 26.1288 20.7529C26.3859 21.4969 26.5144 22.2749 26.5144 23.087C26.5144 23.8991 26.3859 24.6771 26.1288 25.421C25.8844 26.1281 25.5397 26.7608 25.0945 27.3194C24.8841 27.5788 24.7576 27.9114 24.7576 28.2742C24.7576 29.1025 25.417 29.774 26.2304 29.774C26.6961 29.774 27.1113 29.5539 27.3812 29.2102C28.0411 28.3824 28.5498 27.4513 28.9073 26.4169C29.2757 25.3507 29.46 24.2407 29.46 23.087C29.46 21.9332 29.2757 20.8233 28.9073 19.7571C28.5498 18.7227 28.0411 17.7915 27.3812 16.9637C27.1113 16.62 26.6961 16.3999 26.2304 16.3999C25.417 16.3999 24.7576 17.0714 24.7576 17.8998C24.7576 18.2625 24.8841 18.5952 25.0946 18.8546Z" fill-rule="evenodd"  fill="#FFFFFF" >
</path>
<path d="M29.0013 16.4153C29.6449 17.2848 30.1433 18.2701 30.4966 19.3711C30.8679 20.5284 31.0536 21.7381 31.0536 23.0002C31.0536 24.2622 30.8679 25.4719 30.4966 26.6293C30.1433 27.7302 29.6449 28.7155 29.0013 29.585C28.8094 29.8383 28.6952 30.1558 28.6952 30.5005C28.6952 31.3288 29.3548 32.0003 30.1684 32.0003C30.6548 32.0003 31.0862 31.7604 31.3545 31.3902C32.1949 30.2547 32.8425 28.9783 33.2973 27.5607C33.7658 26.1008 34 24.5806 34 23.0002C34 21.4198 33.7658 19.8996 33.2973 18.4396C32.8425 17.022 32.1949 15.7455 31.3545 14.6101C31.0862 14.24 30.6548 14 30.1684 14C29.3548 14 28.6952 14.6715 28.6952 15.4999C28.6952 15.8445 28.8094 16.162 29.0013 16.4153Z" fill-rule="evenodd"  fill="#FFFFFF" >
</path>
<path d="M10.9987 16.4153C10.3551 17.2848 9.8567 18.2701 9.50344 19.3711C9.13209 20.5284 8.94642 21.7381 8.94642 23.0002C8.94642 24.2622 9.13209 25.4719 9.50344 26.6293C9.8567 27.7302 10.3551 28.7155 10.9987 29.585C11.1906 29.8383 11.3048 30.1558 11.3048 30.5005C11.3048 31.3288 10.6452 32.0003 9.8316 32.0003C9.34516 32.0003 8.91378 31.7604 8.6455 31.3902C7.8051 30.2547 7.15749 28.9783 6.70267 27.5607C6.23422 26.1008 6 24.5806 6 23.0002C6 21.4198 6.23422 19.8996 6.70267 18.4396C7.1575 17.022 7.80512 15.7455 8.64553 14.6101C8.91381 14.24 9.34517 14 9.8316 14C10.6452 14 11.3048 14.6715 11.3048 15.4999C11.3048 15.8445 11.1906 16.162 10.9987 16.4153Z" fill-rule="evenodd"  fill="#FFFFFF" >
</path>
</svg>
