<svg xmlns="http://www.w3.org/2000/svg" xmlns:xlink="http://www.w3.org/1999/xlink" width="40" height="40" viewBox="0 0 40 40" fill="none">
<path d="M0 0L40 0L40 40L0 40L0 0Z"   fill="#FFFFFF" fill-opacity="0">
</path>
<path   fill="rgba(255, 255, 255, 1)"  d="M11 14L29 14C31.2091 14 33 15.7909 33 18L33 28C33 30.2091 31.2091 32 29 32L11 32C8.79086 32 7 30.2091 7 28L7 18C7 15.7909 8.79086 14 11 14ZM11 16C9.89543 16 9 16.8954 9 18L9 28C9 29.1046 9.89543 30 11 30L29 30C30.1046 30 31 29.1046 31 28L31 18C31 16.8954 30.1046 16 29 16L11 16Z">
</path>
<rect  x="12" y="18" width="4" height="7" rx="2"    fill="#FFFFFF" >
</rect>
<rect  x="25" y="18" width="4" height="7" rx="2"    fill="#FFFFFF" >
</rect>
<path   fill="rgba(255, 255, 255, 1)"  d="M19 24L19 24.5L18 24.5L19 24.5C19 25.3284 19.6716 26 20.5 26L20.5 27L20.5 26C21.3284 26 22 25.3284 22 24.5L23 24.5L22 24.5L22 24L24 24L24 24.5L24 24.5C24 26.433 22.433 28 20.5 28L20.5 28C18.567 28 17 26.433 17 24.5L17 24.5L17 24L19 24Z">
</path>
</svg>
