<svg xmlns="http://www.w3.org/2000/svg" xmlns:xlink="http://www.w3.org/1999/xlink" width="40" height="40" viewBox="0 0 40 40" fill="none">
<g opacity="0">
<rect x="0" y="0" width="40" height="40"   fill="#CCCCCC" >
</rect>
</g>
<path d="M26.8919 10L13.1081 10C7.52555 10 3 14.5256 3 20.1081C3 25.6907 7.52555 30.2162 13.1081 30.2162L26.8919 30.2162C32.4744 30.2162 37 25.6907 37 20.1081C37 14.5256 32.4744 10 26.8919 10ZM13.1998 26.8469C16.9553 26.8469 19.9998 23.8298 19.9998 20.1081C19.9998 16.3864 16.9553 13.3694 13.1998 13.3694C9.44426 13.3694 6.3998 16.3864 6.3998 20.1081C6.3998 23.8298 9.44426 26.8469 13.1998 26.8469Z" fill-rule="evenodd"  fill="#FFFFFF" >
</path>
</svg>
