<svg xmlns="http://www.w3.org/2000/svg" xmlns:xlink="http://www.w3.org/1999/xlink" width="40" height="40" viewBox="0 0 40 40" fill="none">
<path d="M0 0L40 0L40 40L0 40L0 0Z"   fill="#FFFFFF" fill-opacity="0">
</path>
<path d="M22.8628 14.6945L20.002 12.6678L19.6944 9.17535L17.6677 12.0361L14.1752 12.3438L17.036 14.3705L17.3437 17.8629L19.3704 15.0021L22.8628 14.6945Z"   fill="#FFFFFF" >
</path>
<path d="M29.1525 26.2081L26.4304 26.3698L24.5448 24.4L24.7065 27.1221L22.7367 29.0077L25.4588 28.846L27.3444 30.8158L27.1827 28.0937L29.1525 26.2081Z"   fill="#FFFFFF" >
</path>
<path d="M17.495 21.1169L15.6985 21.2237L14.4541 19.9238L14.5608 21.7202L13.2607 22.9646L15.0572 22.8578L16.3016 24.1577L16.195 22.3614L17.495 21.1169Z"   fill="#FFFFFF" >
</path>
<path     fill="#FFFFFF"  d="M26.8461 16.7289L26.8461 16.7289C27.2611 17.1134 27.3132 17.7514 26.966 18.1981L15.2419 33.2851C14.2521 34.5588 12.3837 34.7113 11.2005 33.615L11.2005 33.615C10.0172 32.5187 10.027 30.6441 11.2216 29.5602L25.372 16.7212C25.791 16.341 26.4311 16.3444 26.8461 16.7289Z">
</path>
</svg>
