<svg xmlns="http://www.w3.org/2000/svg" xmlns:xlink="http://www.w3.org/1999/xlink" width="30" height="32" viewBox="0 0 30 32" fill="none">
<path     fill="#D43572"  d="M8.77191 3.17162L9.32611 3.06737C13.0758 2.36198 16.9242 2.36198 20.6739 3.06737L21.2281 3.17162C25.0854 3.89726 28.1027 6.91459 28.8284 10.7719L28.8284 10.7719C29.6027 14.8879 29.6027 19.1121 28.8284 23.2281L28.8284 23.2281C28.1027 27.0854 25.0854 30.1027 21.2281 30.8284L20.6739 30.9326C16.9242 31.638 13.0758 31.638 9.32611 30.9326L8.77191 30.8284C4.91459 30.1027 1.89726 27.0854 1.17162 23.2281L1.17162 23.2281C0.397331 19.1121 0.397331 14.8879 1.17162 10.7719L1.17162 10.7719C1.89726 6.91459 4.91459 3.89726 8.77191 3.17162Z">
</path>
<path     fill="#FB73A8"  d="M8.77191 1.17162L9.32611 1.06737C13.0758 0.361975 16.9242 0.361975 20.6739 1.06737L21.2281 1.17162C25.0854 1.89726 28.1027 4.91459 28.8284 8.77191L28.8284 8.77191C29.6027 12.8879 29.6027 17.1121 28.8284 21.2281L28.8284 21.2281C28.1027 25.0854 25.0854 28.1027 21.2281 28.8284L20.6739 28.9326C16.9242 29.638 13.0758 29.638 9.32611 28.9326L8.77191 28.8284C4.91459 28.1027 1.89726 25.0854 1.17162 21.2281L1.17162 21.2281C0.397331 17.1121 0.397331 12.8879 1.17162 8.77191L1.17162 8.77191C1.89726 4.91459 4.91459 1.89726 8.77191 1.17162Z">
</path>
<ellipse cx="20.18887710571289" cy="10.579479217529297" rx="2.5853614807128906" ry="2.579479217529297"   fill="#FFFFFF" >
</ellipse>
<path    stroke="rgba(255, 255, 255, 1)" stroke-width="2"  stroke-linecap="round"  d="M11.3825 12.3928C13.8032 11.2194 14.9347 11.3683 17.1934 14.2432C19.4521 17.1181 21.6393 15.5559 22.6945 14.8986">
</path>
<path    stroke="rgba(255, 255, 255, 1)" stroke-width="2"  stroke-linecap="round"  d="M6.99939 17.2563L9.56119 15.4025">
</path>
<path    stroke="rgba(255, 255, 255, 1)" stroke-width="2"  stroke-linecap="round"  d="M7.99928 19.8336L12.2085 16.7028">
</path>
<path   fill="rgba(255, 255, 255, 1)"  d="M8.4006 21.8172L15.2224 16.7682L15.2224 16.7682L15.2224 16.7682Q15.686 16.4251 16.2627 16.427Q16.8393 16.4289 17.3001 16.7751L17.3001 16.7751L21.1266 19.6503L21.1266 19.6503C22.4612 20.6532 21.748 22.7783 20.0776 22.7756L20.0776 22.7756L17.4981 22.7715L17.503 20.7719L20.0825 20.776L20.08 21.7758L20.0825 20.776C19.8297 20.7756 19.7217 21.0973 19.9237 21.2491L20.5251 20.4497L19.9237 21.2491L16.0973 18.3739L16.6987 17.5745L16.0973 18.3739Q16.167 18.4263 16.2543 18.4266Q16.3416 18.4269 16.4118 18.3749L15.8171 17.5716L16.4118 18.3749L15.8171 17.5716L16.4118 18.3749L9.59005 23.4239L8.4006 21.8172ZM8.78634 23.5984C8.24614 23.4835 7.90179 22.9525 8.01721 22.4124C8.13263 21.8723 8.66411 21.5277 9.20431 21.6426C9.74451 21.7575 10.0889 22.2885 9.97344 22.8286C9.85802 23.3687 9.32654 23.7133 8.78634 23.5984ZM17.2915 22.7496C16.7513 22.6347 16.407 22.1037 16.5224 21.5636C16.6378 21.0235 17.1693 20.6788 17.7095 20.7937C18.2497 20.9087 18.5941 21.4397 18.4786 21.9797C18.3632 22.5198 17.8317 22.8645 17.2915 22.7496Z">
</path>
</svg>
