<svg xmlns="http://www.w3.org/2000/svg" xmlns:xlink="http://www.w3.org/1999/xlink" width="30" height="32" viewBox="0 0 30 32" fill="none">
<path     fill="#B3571B"  d="M8.77191 3.17162L9.32611 3.06737C13.0758 2.36198 16.9242 2.36198 20.6739 3.06737L21.2281 3.17162C25.0854 3.89726 28.1027 6.91459 28.8284 10.7719L28.8284 10.7719C29.6027 14.8879 29.6027 19.1121 28.8284 23.2281L28.8284 23.2281C28.1027 27.0854 25.0854 30.1027 21.2281 30.8284L20.6739 30.9326C16.9242 31.638 13.0758 31.638 9.32611 30.9326L8.77191 30.8284C4.91459 30.1027 1.89726 27.0854 1.17162 23.2281L1.17162 23.2281C0.397331 19.1121 0.397331 14.8879 1.17162 10.7719L1.17162 10.7719C1.89726 6.91459 4.91459 3.89726 8.77191 3.17162Z">
</path>
<path     fill="#FA8537"  d="M8.77191 1.17162L9.32611 1.06737C13.0758 0.361975 16.9242 0.361975 20.6739 1.06737L21.2281 1.17162C25.0854 1.89726 28.1027 4.91459 28.8284 8.77191L28.8284 8.77191C29.6027 12.8879 29.6027 17.1121 28.8284 21.2281L28.8284 21.2281C28.1027 25.0854 25.0854 28.1027 21.2281 28.8284L20.6739 28.9326C16.9242 29.638 13.0758 29.638 9.32611 28.9326L8.77191 28.8284C4.91459 28.1027 1.89726 25.0854 1.17162 21.2281L1.17162 21.2281C0.397331 17.1121 0.397331 12.8879 1.17162 8.77191L1.17162 8.77191C1.89726 4.91459 4.91459 1.89726 8.77191 1.17162Z">
</path>
<path d="M17.0037 10.2843L15.0011 8.8656L14.7858 6.42089L13.3671 8.42345L10.9224 8.6388L12.9249 10.0575L13.1403 12.5022L14.559 10.4996L17.0037 10.2843Z"   fill="#FFFFFF" >
</path>
<path d="M21.4104 18.3454L19.5049 18.4586L18.185 17.0797L18.2982 18.9851L16.9193 20.3051L18.8248 20.1919L20.1447 21.5708L20.0315 19.6653L21.4104 18.3454Z"   fill="#FFFFFF" >
</path>
<path d="M13.2425 14.7827L11.985 14.8575L11.1139 13.9475L11.1885 15.205L10.2785 16.0761L11.536 16.0014L12.4071 16.9113L12.3325 15.6538L13.2425 14.7827Z"   fill="#FFFFFF" >
</path>
<path     fill="#FFFFFF"  d="M19.7914 11.7109L19.7914 11.7109C20.0819 11.9801 20.1183 12.4267 19.8753 12.7394L11.6685 23.3003C10.9756 24.1919 9.66773 24.2987 8.83945 23.5312L8.83945 23.5312C8.01117 22.7638 8.01804 21.4516 8.85431 20.6928L18.7595 11.7056C19.0528 11.4394 19.5009 11.4418 19.7914 11.7109Z">
</path>
</svg>
