<svg xmlns="http://www.w3.org/2000/svg" xmlns:xlink="http://www.w3.org/1999/xlink" width="30" height="32"
  viewBox="0 0 30 32" fill="none">
  <path fill="#1C72B0"
    d="M8.77191 3.17162L9.32611 3.06737C13.0758 2.36198 16.9242 2.36198 20.6739 3.06737L21.2281 3.17162C25.0854 3.89726 28.1027 6.91459 28.8284 10.7719L28.8284 10.7719C29.6027 14.8879 29.6027 19.1121 28.8284 23.2281L28.8284 23.2281C28.1027 27.0854 25.0854 30.1027 21.2281 30.8284L20.6739 30.9326C16.9242 31.638 13.0758 31.638 9.32611 30.9326L8.77191 30.8284C4.91459 30.1027 1.89726 27.0854 1.17162 23.2281L1.17162 23.2281C0.397331 19.1121 0.397331 14.8879 1.17162 10.7719L1.17162 10.7719C1.89726 6.91459 4.91459 3.89726 8.77191 3.17162Z">
  </path>
  <path fill="#22A1FD"
    d="M8.77191 1.17162L9.32611 1.06737C13.0758 0.361975 16.9242 0.361975 20.6739 1.06737L21.2281 1.17162C25.0854 1.89726 28.1027 4.91459 28.8284 8.77191L28.8284 8.77191C29.6027 12.8879 29.6027 17.1121 28.8284 21.2281L28.8284 21.2281C28.1027 25.0854 25.0854 28.1027 21.2281 28.8284L20.6739 28.9326C16.9242 29.638 13.0758 29.638 9.32611 28.9326L8.77191 28.8284C4.91459 28.1027 1.89726 25.0854 1.17162 21.2281L1.17162 21.2281C0.397331 17.1121 0.397331 12.8879 1.17162 8.77191L1.17162 8.77191C1.89726 4.91459 4.91459 1.89726 8.77191 1.17162Z">
  </path>
  <path fill="#FFFFFF"
    d="M9.39472 21.7079L9.39472 21.7079C9.19841 22.3505 9.67914 23 10.3511 23L19.6563 23C20.3261 23 20.8065 22.3545 20.6142 21.7129L20.6142 21.7129C20.4874 21.2898 20.098 21 19.6563 21L10.3511 21C9.91134 21 9.52319 21.2873 9.39472 21.7079Z">
  </path>
  <path fill="#FFFFFF"
    d="M15.0562 11.3889C12.7662 11.3889 10.9062 13.2489 10.9062 15.5389L10.9062 19.6389C10.9062 20.1911 11.354 20.6389 11.9062 20.6389L18.2662 20.6389C18.8185 20.6389 19.2662 20.1911 19.2662 19.6389L19.2662 15.5389C19.2662 13.2489 17.4062 11.3889 15.1162 11.3889L15.0562 11.3889ZM18.4762 14.9989C18.4762 15.1289 18.4062 15.2389 18.2962 15.3089C18.1862 15.3689 18.0462 15.3689 17.9362 15.3089C17.8262 15.2489 17.7562 15.1289 17.7562 14.9989C17.5023 13.5989 16.5762 13.0489 15.1362 13.0489L15.0762 13.0489C14.8762 13.0489 14.7162 12.8889 14.7162 12.6889C14.7162 12.4889 14.8762 12.3289 15.0762 12.3289L15.1362 12.3289C16.9762 12.3289 18.4762 13.5988 18.4762 14.9989ZM10.2362 13.8789C10.2762 13.6989 10.2362 13.5189 10.1362 13.3689C10.0362 13.2189 9.88624 13.1189 9.70624 13.0789L7.74624 12.6889C7.52624 12.6489 7.30624 12.7089 7.14624 12.8589C6.98624 13.0089 6.91624 13.2289 6.94624 13.4489C6.98624 13.7189 7.19624 13.9489 7.48624 14.0089L9.44624 14.3989C9.80624 14.4789 10.1662 14.2389 10.2362 13.8789ZM9.78624 9.33886L11.0362 10.8989C11.2662 11.1889 11.6962 11.2389 11.9862 11.0089C12.1262 10.8989 12.2162 10.7289 12.2362 10.5589C12.2562 10.3789 12.2062 10.1989 12.0962 10.0589L10.8462 8.49886C10.6162 8.20886 10.1862 8.15886 9.89624 8.38886C9.59624 8.62885 9.55624 9.04886 9.78624 9.33886ZM15.1662 9.92886C15.5362 9.92886 15.8562 9.63886 15.8562 9.26886L15.8462 7.26886C15.8462 6.89886 15.5562 6.57886 15.1862 6.57886C14.8162 6.56886 14.4962 6.86886 14.4962 7.23886L14.4962 9.23886C14.4962 9.41886 14.5562 9.58886 14.6862 9.71886C14.8162 9.84886 14.9862 9.92886 15.1662 9.92886ZM18.2962 11.1589C18.4262 11.2789 18.6062 11.3289 18.7862 11.3289C18.9662 11.3289 19.1362 11.2389 19.2462 11.0989L20.5662 9.59886C20.7962 9.31886 20.7662 8.89886 20.4862 8.65886C20.2062 8.41886 19.7962 8.43886 19.5462 8.69886L18.2262 10.1989L18.1962 10.2289C18.1962 10.2289 18.1762 10.2487 18.1762 10.2589C18.1762 10.269 18.1562 10.2784 18.1562 10.2889C18.1562 10.2993 18.1362 10.3081 18.1362 10.3189C18.1362 10.3297 18.1262 10.3377 18.1262 10.3489C18.1262 10.36 18.1062 10.3775 18.1062 10.3889C18.1062 10.4003 18.0962 10.4073 18.0962 10.4189C18.0962 10.4305 18.0862 10.447 18.0862 10.4589C18.0862 10.4707 18.0762 10.4769 18.0762 10.4889C18.0762 10.5009 18.0662 10.5167 18.0662 10.5289C18.0662 10.541 18.0562 10.5566 18.0562 10.5689C18.0562 10.5811 18.0562 10.5866 18.0562 10.5989C18.0562 10.6112 18.0562 10.6266 18.0562 10.6389C18.0562 10.6512 18.0562 10.6666 18.0562 10.6789C18.0562 10.6912 18.0562 10.6966 18.0562 10.7089C18.0562 10.7211 18.0662 10.7367 18.0662 10.7489C18.0962 10.8989 18.1762 11.0489 18.2962 11.1589ZM23.2162 13.5989C23.1562 13.2289 22.8162 12.9789 22.4462 13.0289L20.4762 13.3289C20.2262 13.3589 20.0162 13.5189 19.9262 13.7489C19.8362 13.9789 19.8762 14.2389 20.0362 14.4389C20.1962 14.6289 20.4462 14.7189 20.6862 14.6689L22.6562 14.3689C22.8362 14.3389 22.9962 14.2489 23.0962 14.0989C23.2062 13.9589 23.2462 13.7789 23.2162 13.5989Z">
  </path>
</svg>
