<svg xmlns="http://www.w3.org/2000/svg" xmlns:xlink="http://www.w3.org/1999/xlink" width="30" height="32" viewBox="0 0 30 32" fill="none">
<path     fill="#1686AB"  d="M8.77191 3.17162L9.32611 3.06737C13.0758 2.36198 16.9242 2.36198 20.6739 3.06737L21.2281 3.17162C25.0854 3.89726 28.1027 6.91459 28.8284 10.7719L28.8284 10.7719C29.6027 14.8879 29.6027 19.1121 28.8284 23.2281L28.8284 23.2281C28.1027 27.0854 25.0854 30.1027 21.2281 30.8284L20.6739 30.9326C16.9242 31.638 13.0758 31.638 9.32611 30.9326L8.77191 30.8284C4.91459 30.1027 1.89726 27.0854 1.17162 23.2281L1.17162 23.2281C0.397331 19.1121 0.397331 14.8879 1.17162 10.7719L1.17162 10.7719C1.89726 6.91459 4.91459 3.89726 8.77191 3.17162Z">
</path>
<path     fill="#3DBAE3"  d="M8.77191 1.17162L9.32611 1.06737C13.0758 0.361975 16.9242 0.361975 20.6739 1.06737L21.2281 1.17162C25.0854 1.89726 28.1027 4.91459 28.8284 8.77191L28.8284 8.77191C29.6027 12.8879 29.6027 17.1121 28.8284 21.2281L28.8284 21.2281C28.1027 25.0854 25.0854 28.1027 21.2281 28.8284L20.6739 28.9326C16.9242 29.638 13.0758 29.638 9.32611 28.9326L8.77191 28.8284C4.91459 28.1027 1.89726 25.0854 1.17162 21.2281L1.17162 21.2281C0.397331 17.1121 0.397331 12.8879 1.17162 8.77191L1.17162 8.77191C1.89726 4.91459 4.91459 1.89726 8.77191 1.17162Z">
</path>
<path   fill="rgba(255, 255, 255, 1)"  d="M9.875 9L21.125 9C22.7128 9 24 10.2872 24 11.875L24 18.125C24 19.7128 22.7128 21 21.125 21L9.875 21C8.28718 21 7 19.7128 7 18.125L7 11.875C7 10.2872 8.28718 9 9.875 9ZM9.875 11C9.39175 11 9 11.3918 9 11.875L9 18.125C9 18.6082 9.39175 19 9.875 19L21.125 19C21.6082 19 22 18.6082 22 18.125L22 11.875C22 11.3918 21.6082 11 21.125 11L9.875 11Z">
</path>
<rect  x="10.505859375" y="11.8740234375" width="2.5" height="4.375" rx="1.25"    fill="#FFFFFF" >
</rect>
<rect  x="18.6279296875" y="11.8740234375" width="2.5" height="4.375" rx="1.25"    fill="#FFFFFF" >
</rect>
<path   fill="rgba(255, 255, 255, 1)"  d="M14.75 15.6235L14.75 15.936L14.75 15.936C14.75 16.5228 15.2257 16.9985 15.8125 16.9985L15.8125 17.4985L15.8125 16.9985C16.3993 16.9985 16.875 16.5228 16.875 15.936L17.375 15.936L16.875 15.936L16.875 15.6235L17.875 15.6235L17.875 15.936L17.875 15.936C17.875 17.0751 16.9516 17.9985 15.8125 17.9985L15.8125 17.9985C14.6734 17.9985 13.75 17.0751 13.75 15.936L14.25 15.936L13.75 15.936L13.75 15.6235L14.75 15.6235Z">
</path>
</svg>
