<svg xmlns="http://www.w3.org/2000/svg" xmlns:xlink="http://www.w3.org/1999/xlink" width="30" height="32"
  viewBox="0 0 30 32" fill="none">
  <path fill="#7A17BD"
    d="M8.77191 3.17162L9.32611 3.06737C13.0758 2.36198 16.9242 2.36198 20.6739 3.06737L21.2281 3.17162C25.0854 3.89726 28.1027 6.91459 28.8284 10.7719L28.8284 10.7719C29.6027 14.8879 29.6027 19.1121 28.8284 23.2281L28.8284 23.2281C28.1027 27.0854 25.0854 30.1027 21.2281 30.8284L20.6739 30.9326C16.9242 31.638 13.0758 31.638 9.32611 30.9326L8.77191 30.8284C4.91459 30.1027 1.89726 27.0854 1.17162 23.2281L1.17162 23.2281C0.397331 19.1121 0.397331 14.8879 1.17162 10.7719L1.17162 10.7719C1.89726 6.91459 4.91459 3.89726 8.77191 3.17162Z">
  </path>
  <path fill="#AB4FE8"
    d="M8.77191 1.17162L9.32611 1.06737C13.0758 0.361975 16.9242 0.361975 20.6739 1.06737L21.2281 1.17162C25.0854 1.89726 28.1027 4.91459 28.8284 8.77191L28.8284 8.77191C29.6027 12.8879 29.6027 17.1121 28.8284 21.2281L28.8284 21.2281C28.1027 25.0854 25.0854 28.1027 21.2281 28.8284L20.6739 28.9326C16.9242 29.638 13.0758 29.638 9.32611 28.9326L8.77191 28.8284C4.91459 28.1027 1.89726 25.0854 1.17162 21.2281L1.17162 21.2281C0.397331 17.1121 0.397331 12.8879 1.17162 8.77191L1.17162 8.77191C1.89726 4.91459 4.91459 1.89726 8.77191 1.17162Z">
  </path>
  <path fill="#FFFFFF"
    d="M14.11 10.33C14.5202 9.71471 15.4374 9.74125 15.81 10.38L18.07 14.26C18.3197 14.688 18.8399 14.864 19.3 14.68L21.55 13.78C22.3323 13.4671 23.1213 14.2058 22.87 15.01L21.22 20.3C21.0895 20.7175 20.6974 21 20.26 21L9.78 21C9.32113 21 8.92129 20.6852 8.81 20.24L7.53 15.11C7.32279 14.2812 8.17584 13.5879 8.94 13.97L10.21 14.61C10.6611 14.8355 11.2103 14.6896 11.49 14.27L14.11 10.33Z">
  </path>
  <circle cx="15" cy="8" r="1" fill="#FFFFFF">
  </circle>
  <circle cx="24" cy="13" r="1" fill="#FFFFFF">
  </circle>
  <circle cx="7" cy="13" r="1" fill="#FFFFFF">
  </circle>
</svg>
