<svg xmlns="http://www.w3.org/2000/svg" xmlns:xlink="http://www.w3.org/1999/xlink" width="70.00048828125" height="70.00001525878906" viewBox="0 0 70.00048828125 70.00001525878906" fill="none">
<rect  x="0" y="0" width="70" height="70" rx="2"    fill="#42AFFC" >
</rect>
<path fill-rule="evenodd"  fill="rgba(44, 146, 219, 1)"  d="M67.9998 0L2 0C0.895428 0 0 0.895431 0 2L0 68C0 69.1046 0.895428 70 2 70L67.9998 70C69.1044 70 69.9998 69.1046 69.9998 68L69.9998 2C69.9998 0.895431 69.1044 0 67.9998 0ZM0.999998 2C0.999998 1.44772 1.44771 1 2 1L67.9998 1C68.5521 1 68.9998 1.44772 68.9998 2L68.9998 68C68.9998 68.5523 68.5521 69 67.9998 69L2 69C1.44771 69 0.999998 68.5523 0.999998 68L0.999998 2Z">
</path>
<g  clip-path="url(#clip-path-61_43)">
<path d="M20.834 46.8333C19.4533 46.8333 18.334 45.7141 18.334 44.3333L18.334 36.5914C18.334 34.6969 19.4047 32.9651 21.0995 32.1185L21.6678 31.8346L23.5927 23.5766C23.9445 22.0676 25.2896 21 26.839 21L43.2459 21C44.8069 21 46.1589 22.0833 46.4991 23.6068L48.3366 31.8346L48.9035 32.118C50.5973 32.965 51.6673 34.6962 51.6673 36.5901L51.6673 44.3333C51.6673 45.7141 50.5481 46.8333 49.1673 46.8333L47.5032 46.8333L47.5032 47.6667C47.5032 49.5076 46.0096 51 44.1686 51C42.3277 51 40.834 49.5076 40.834 47.6667L40.834 46.8333L29.1673 46.8333L29.1673 47.6669C29.1673 49.5077 27.6751 51 25.8342 51C23.9934 51 22.5011 49.5077 22.5011 47.6669L22.5011 46.8333L20.834 46.8333ZM42.0895 34.3333L27.9145 34.3333C27.2744 34.3333 26.7992 33.7404 26.9384 33.1157L28.047 28.1433C28.2164 27.3808 28.8858 26.8333 29.667 26.8333L40.327 26.8333C41.1082 26.8333 41.7876 27.3808 41.957 28.1433L43.0655 33.1157C43.2048 33.7404 42.7295 34.3333 42.0895 34.3333ZM28.3337 40.5833C28.3337 41.7339 27.4009 42.6667 26.2503 42.6667C25.0997 42.6667 24.167 41.7339 24.167 40.5833C24.167 39.4328 25.0997 38.5 26.2503 38.5C27.4009 38.5 28.3337 39.4328 28.3337 40.5833ZM45.8337 40.5833C45.8337 41.7339 44.9009 42.6667 43.7503 42.6667C42.5997 42.6667 41.667 41.7339 41.667 40.5833C41.667 39.4328 42.5997 38.5 43.7503 38.5C44.9009 38.5 45.8337 39.4328 45.8337 40.5833Z" fill-rule="evenodd"  fill="#FFFFFF" >
</path>
</g>
<defs>
<clipPath id="clip-path-61_43">
<path d="M15.0005 49L55.0005 49L55.0005 9L15.0005 9L15.0005 49Z" fill="white"/>
</clipPath>
</defs>
</svg>
