<svg xmlns="http://www.w3.org/2000/svg" xmlns:xlink="http://www.w3.org/1999/xlink" width="70.00048828125" height="70.00001525878906" viewBox="0 0 70.00048828125 70.00001525878906" fill="none">
<rect  x="0" y="0" width="70" height="70" rx="2"    fill="#42AFFC" >
</rect>
<path fill-rule="evenodd"  fill="rgba(44, 146, 219, 1)"  d="M67.9998 0L2 0C0.895428 0 0 0.895431 0 2L0 68C0 69.1046 0.895428 70 2 70L67.9998 70C69.1044 70 69.9998 69.1046 69.9998 68L69.9998 2C69.9998 0.895431 69.1044 0 67.9998 0ZM0.999998 2C0.999998 1.44772 1.44771 1 2 1L67.9998 1C68.5521 1 68.9998 1.44772 68.9998 2L68.9998 68C68.9998 68.5523 68.5521 69 67.9998 69L2 69C1.44771 69 0.999998 68.5523 0.999998 68L0.999998 2Z">
</path>
<path     fill="#FFFFFF"  d="M22.2818 14.17C22.1193 14.0839 21.9188 14.1722 21.8718 14.35L21.3818 16.21C21.3267 16.4189 21.1379 16.56 20.9218 16.56L19.3418 16.56C19.127 16.56 18.9918 16.7899 19.0918 16.98L20.3118 19.31L18.8718 20.2L21.9618 20.89C19.6455 24.432 21.2669 24.7019 21.9618 24.82C21.9618 34.4622 24.9443 39.3841 28.6118 43.91C32.0043 48.0965 31.5714 50.4217 31.2118 51.54C31.1607 51.699 31.0373 51.819 30.8818 51.88L27.3518 53.27C27.254 53.3084 27.2767 53.45 27.3818 53.45L33.8318 53.45C33.9104 53.45 33.9491 53.3627 33.9018 53.3L32.8818 51.94C32.8071 51.8409 32.7618 51.7141 32.7618 51.59L32.7618 45.19L35.0818 45.19L38.2618 51.78L38.2618 51.79C38.2618 52.1946 37.9985 52.5508 37.6118 52.67L35.1918 53.42C35.1741 53.42 35.1733 53.45 35.1918 53.45L41.1318 53.45C41.2164 53.45 41.2613 53.3501 41.2018 53.29L39.8118 51.88C39.7489 51.8163 39.6993 51.7352 39.6718 51.65L37.5918 45.19C38.6354 45.5769 41.0014 44.4549 42.0718 43.94C42.1087 43.9223 42.1517 43.93 42.1918 43.93L43.9318 44.26C44.0492 44.2826 44.1618 44.1896 44.1618 44.07L44.1618 43.48C44.1618 43.3905 44.2144 43.309 44.3018 43.29L45.7718 42.97C45.8888 42.9445 45.9492 42.82 45.9018 42.71L45.4318 41.62C45.3778 41.4944 45.4751 41.35 45.6118 41.35L46.6718 41.35C46.8392 41.35 46.9929 41.24 47.0418 41.08L47.2618 40.35C47.3108 40.19 47.4645 40.08 47.6318 40.08L48.5518 40.08C48.8681 40.08 49.0453 39.7102 48.8518 39.46L48.0418 38.41C47.8186 38.1213 48.0896 37.7146 48.4418 37.81L51.3618 38.61C51.5544 38.6621 51.7558 38.5483 51.8218 38.36L52.1918 37.32C52.2492 37.1562 52.186 36.9766 52.0418 36.88L49.6318 35.26C49.3193 35.0506 49.4656 34.57 49.8418 34.57L52.7518 34.57C52.9621 34.57 53.1318 34.4003 53.1318 34.19L53.1318 33.3C53.1318 33.1199 53.0082 32.957 52.8318 32.92L49.6318 32.25C49.2824 32.1767 49.2156 31.7058 49.5318 31.54L52.8118 29.82C52.9897 29.7268 53.0635 29.5134 52.9818 29.33L52.4418 28.11C52.3545 27.9138 52.1253 27.8268 51.9318 27.92L47.5918 30.01C47.4462 30.0802 47.2758 30.0438 47.1718 29.92C47.048 29.7725 47.0569 29.5568 47.2018 29.43L50.4218 26.61C50.5948 26.4587 50.6043 26.1919 50.4318 26.04L48.8818 24.68C48.7231 24.5401 48.4776 24.5477 48.3418 24.71C46.8708 26.4694 46.0776 27.8376 40.5918 29.25C34.9614 30.6997 28.7659 22.9623 27.0218 19.58C26.9347 19.4111 26.9666 19.223 27.0918 19.08L28.8718 17.03C29.0334 16.8454 28.9072 16.56 28.6618 16.56L27.3618 16.56C27.099 16.56 26.8818 16.3428 26.8818 16.08L26.8818 14.47C26.8818 14.257 26.6618 14.1136 26.4718 14.21L24.5918 15.16C24.4539 15.23 24.2886 15.2324 24.1518 15.16L22.2818 14.17Z">
</path>
</svg>
