<svg xmlns="http://www.w3.org/2000/svg" xmlns:xlink="http://www.w3.org/1999/xlink" width="70.00048828125" height="70.00001525878906" viewBox="0 0 70.00048828125 70.00001525878906" fill="none">
<rect  x="0" y="0" width="70" height="70" rx="2"    fill="#42AFFC" >
</rect>
<path fill-rule="evenodd"  fill="rgba(44, 146, 219, 1)"  d="M67.9998 0L2 0C0.895428 0 0 0.895431 0 2L0 68C0 69.1046 0.895428 70 2 70L67.9998 70C69.1044 70 69.9998 69.1046 69.9998 68L69.9998 2C69.9998 0.895431 69.1044 0 67.9998 0ZM0.999998 2C0.999998 1.44772 1.44771 1 2 1L67.9998 1C68.5521 1 68.9998 1.44772 68.9998 2L68.9998 68C68.9998 68.5523 68.5521 69 67.9998 69L2 69C1.44771 69 0.999998 68.5523 0.999998 68L0.999998 2Z">
</path>
<g  clip-path="url(#clip-path-61_5)">
<path d="M31.6574 21.6084C31.6574 17.9417 33.781 16.1083 34.8429 15.65C35.9048 16.1083 38.0285 17.9417 38.0285 21.6084L38.0285 28.4834L52.1361 40.2594L52.1361 43.9052L37.5734 36.6135L37.5734 44.8167L42.1243 52.1083L34.8429 49.374L27.5616 52.1083L32.1124 44.8167L32.1124 36.6135L17.5498 43.9052L17.5498 40.2594L31.6574 28.4834L31.6574 21.6084Z" stroke="rgba(255, 255, 255, 1.00)" stroke-width="2" stroke-linejoin="round" stroke-linecap="round"    fill="#FFFFFF" >
</path>
</g>
<defs>
<clipPath id="clip-path-61_5">
<path d="M13 56.75L56.6879 56.75L56.6879 13L13 13L13 56.75Z" fill="white"/>
</clipPath>
</defs>
</svg>
