<svg xmlns="http://www.w3.org/2000/svg" xmlns:xlink="http://www.w3.org/1999/xlink" width="70" height="70.00001525878906" viewBox="0 0 70 70.00001525878906" fill="none">
<rect  x="0" y="0" width="70" height="70" rx="2"    fill="#42AFFC" >
</rect>
<path fill-rule="evenodd"  fill="rgba(44, 146, 219, 1)"  d="M67.9998 0L2 0C0.895428 0 0 0.895431 0 2L0 68C0 69.1046 0.895428 70 2 70L67.9998 70C69.1044 70 69.9998 69.1046 69.9998 68L69.9998 2C69.9998 0.895431 69.1044 0 67.9998 0ZM0.999998 2C0.999998 1.44772 1.44771 1 2 1L67.9998 1C68.5521 1 68.9998 1.44772 68.9998 2L68.9998 68C68.9998 68.5523 68.5521 69 67.9998 69L2 69C1.44771 69 0.999998 68.5523 0.999998 68L0.999998 2Z">
</path>
<path    stroke="rgba(255, 255, 255, 1)" stroke-width="2.215468256962033"  stroke-linecap="round"  d="M19.4302 23L41.8633 23">
</path>
<path    stroke="rgba(255, 255, 255, 1)" stroke-width="2.215468256962033"    d="M31.0625 23.2769L31.0625 33.5308">
</path>
<path d="M60.1507 26.3385C60.2912 25.6107 59.732 24.9385 58.9907 24.9385C58.5078 24.9385 58.0695 25.23 57.8907 25.6785L56.1907 29.9485C55.7401 31.0782 54.5205 31.7037 53.3407 31.4085L44.5806 29.2185C40.4822 28.1932 36.2654 27.6685 32.0406 27.6685L23.5706 27.6685C21.8502 27.6685 20.2153 28.4297 19.1106 29.7485L18.6406 30.3085C16.2868 33.1187 15.0006 36.6629 15.0006 40.3285C15.0006 42.227 16.5421 43.7685 18.4406 43.7685L37.4806 43.7685C38.0742 43.7685 38.6463 43.5521 39.0906 43.1585L42.3906 40.2385C42.7017 39.9631 43.0747 39.777 43.4806 39.6885L56.6207 36.8185C57.5699 36.6116 58.3064 35.8624 58.4907 34.9085L60.1507 26.3385ZM23.8757 31.0311L29.0157 31.0311C29.7255 31.0311 30.213 31.7535 29.9457 32.4111L27.7457 37.8111C27.5081 38.3957 26.9467 38.7811 26.3157 38.7811L21.5357 38.7811C20.6792 38.7811 19.9756 38.0748 20.0457 37.2211C20.3422 33.6097 21.6787 32.4918 22.6457 31.5611C22.9788 31.2406 23.4134 31.0311 23.8757 31.0311ZM34.6594 31.0311L38.5394 31.0311C38.9983 31.0311 39.3694 31.4023 39.3694 31.8611L39.3694 34.0811C39.3694 34.54 38.9983 34.9111 38.5394 34.9111L34.6594 34.9111C34.2006 34.9111 33.8294 34.54 33.8294 34.0811L33.8294 31.8611C33.8294 31.4023 34.2006 31.0311 34.6594 31.0311Z" fill-rule="evenodd"  fill="#FFFFFF" >
</path>
<path    stroke="rgba(255, 255, 255, 1)" stroke-width="2.215468256962033"  stroke-linecap="round"  d="M24.1383 42.6622L21.9229 47.0932">
</path>
<path    stroke="rgba(255, 255, 255, 1)" stroke-width="2.215468256962033"  stroke-linecap="round"  d="M34.1068 42.6622L36.3223 47.0932">
</path>
<path    stroke="rgba(255, 255, 255, 1)" stroke-width="2.215468256962033"  stroke-linecap="round"  d="M16.6626 46.2624L18.3242 47.6471L39.925 47.6471">
</path>
</svg>
