<svg xmlns="http://www.w3.org/2000/svg" xmlns:xlink="http://www.w3.org/1999/xlink" width="70" height="70.00001525878906" viewBox="0 0 70 70.00001525878906" fill="none">
<rect  x="0" y="0" width="70" height="70" rx="2"    fill="#42AFFC" >
</rect>
<path fill-rule="evenodd"  fill="rgba(44, 146, 219, 1)"  d="M67.9998 0L2 0C0.895428 0 0 0.895431 0 2L0 68C0 69.1046 0.895428 70 2 70L67.9998 70C69.1044 70 69.9998 69.1046 69.9998 68L69.9998 2C69.9998 0.895431 69.1044 0 67.9998 0ZM0.999998 2C0.999998 1.44772 1.44771 1 2 1L67.9998 1C68.5521 1 68.9998 1.44772 68.9998 2L68.9998 68C68.9998 68.5523 68.5521 69 67.9998 69L2 69C1.44771 69 0.999998 68.5523 0.999998 68L0.999998 2Z">
</path>
<path d="M25.7347 32.4226C25.1577 26.9507 29.456 22.185 34.9682 22.185C40.4804 22.185 44.7787 26.9507 44.2016 32.4226L43.7145 37.0418Q41.3808 35.8789 38.9193 35.3581Q35.9717 34.7344 32.961 35.0529Q30.4404 35.3196 28.0408 36.2247Q27.0873 36.5844 26.2192 37.0168L25.7347 32.4226ZM31.7266 32.3562C32.4428 32.3562 33.0235 31.7766 33.0235 31.0617C33.0235 30.3467 32.4428 29.7672 31.7266 29.7672C31.0103 29.7672 30.4297 30.3467 30.4297 31.0617C30.4297 31.7766 31.0103 32.3562 31.7266 32.3562ZM38.2105 32.3562C38.9267 32.3562 39.5073 31.7766 39.5073 31.0617C39.5073 30.3467 38.9267 29.7672 38.2105 29.7672C37.4942 29.7672 36.9136 30.3467 36.9136 31.0617C36.9136 31.7766 37.4942 32.3562 38.2105 32.3562ZM33.3617 37.8055C36.8272 37.4388 40.1686 38.223 43.3858 40.1579L43.237 41.5696C43.1275 42.6088 42.8334 43.5899 42.3551 44.5127C41.8914 45.4074 41.2834 46.1928 40.5312 46.8687C39.7789 47.5447 38.9329 48.066 37.9929 48.4327C37.0233 48.811 36.015 49 34.9682 49Q33.3979 49 31.9435 48.4327C31.0035 48.066 30.1574 47.5447 29.4052 46.8687C28.6529 46.1928 28.045 45.4074 27.5813 44.5127C27.1029 43.5898 26.809 42.6087 26.6994 41.5695L26.5501 40.1545Q27.8069 39.3459 29.3573 38.7612Q31.3176 38.0217 33.3617 37.8055ZM33.023 42.7123C33.7392 42.7123 34.3199 42.1327 34.3199 41.4178C34.3199 40.7028 33.7392 40.1233 33.023 40.1233C32.3067 40.1233 31.7261 40.7028 31.7261 41.4178C31.7261 42.1327 32.3067 42.7123 33.023 42.7123ZM36.9136 42.7123C37.6298 42.7123 38.2104 42.1327 38.2104 41.4178C38.2104 40.7028 37.6298 40.1233 36.9136 40.1233C36.1973 40.1233 35.6167 40.7028 35.6167 41.4178C35.6167 42.1327 36.1973 42.7123 36.9136 42.7123Z" fill-rule="evenodd"  fill="#FFFFFF" >
</path>
<path     fill="#FFFFFF"  d="M40.8047 24.5325C42.2097 23.238 45.5982 20.9029 47.2892 22.5907C48.9801 24.2785 47.2892 25.827 45.9923 26.1506C44.3712 26.5552 43.2688 27.6394 42.75 28.4162">
</path>
<path    stroke="rgba(255, 255, 255, 1.00)" stroke-width="2" stroke-linejoin="round" stroke-linecap="round"  d="M40.8047 24.5325C42.2097 23.238 45.5982 20.9029 47.2892 22.5907C48.9801 24.2785 47.2892 25.827 45.9923 26.1506C44.3712 26.5552 43.2688 27.6394 42.75 28.4162">
</path>
<path     fill="#FFFFFF"  d="M29.1952 24.5325C27.7902 23.238 24.4017 20.9029 22.7107 22.5907C21.0197 24.2785 22.7107 25.827 24.0076 26.1506C25.6287 26.5552 26.7311 27.6394 27.2498 28.4162">
</path>
<path    stroke="rgba(255, 255, 255, 1.00)" stroke-width="2" stroke-linejoin="round" stroke-linecap="round"  d="M29.1952 24.5325C27.7902 23.238 24.4017 20.9029 22.7107 22.5907C21.0197 24.2785 22.7107 25.827 24.0076 26.1506C25.6287 26.5552 26.7311 27.6394 27.2498 28.4162">
</path>
</svg>
