<svg xmlns="http://www.w3.org/2000/svg" xmlns:xlink="http://www.w3.org/1999/xlink" width="70.00048828125" height="70.00001525878906" viewBox="0 0 70.00048828125 70.00001525878906" fill="none">
<rect  x="0" y="0" width="70" height="70" rx="2"    fill="#42AFFC" >
</rect>
<path fill-rule="evenodd"  fill="rgba(44, 146, 219, 1)"  d="M67.9998 0L2 0C0.895428 0 0 0.895431 0 2L0 68C0 69.1046 0.895428 70 2 70L67.9998 70C69.1044 70 69.9998 69.1046 69.9998 68L69.9998 2C69.9998 0.895431 69.1044 0 67.9998 0ZM0.999998 2C0.999998 1.44772 1.44771 1 2 1L67.9998 1C68.5521 1 68.9998 1.44772 68.9998 2L68.9998 68C68.9998 68.5523 68.5521 69 67.9998 69L2 69C1.44771 69 0.999998 68.5523 0.999998 68L0.999998 2Z">
</path>
<path d="M16.0001 25.01C16.0001 20.291 18.1795 19 26.4501 19C34.7207 19 32.2848 26.5125 31.2401 29.73L32.9801 30.58L34.2801 31.87L35.5901 32.73L36.8901 34.02L38.2001 34.87L39.9401 36.59L41.6801 34.87L43.4201 36.59L44.2901 34.02L46.9101 34.44L46.4701 32.3L48.2101 32.73L48.2101 30.58L50.8201 31.01L53.0001 28.01C53.0001 38.306 39.946 49.031 31.2401 45.17C23.6657 41.8108 24.6903 36.1113 25.3426 32.4828C25.44 31.9407 25.5292 31.4449 25.5801 31.01L22.0901 31.01C21.0846 31.01 20.8617 30.4801 20.8101 30.06C20.7878 29.8783 20.9371 29.73 21.1201 29.73L23.5601 29.73C23.9543 29.73 24.2701 29.4142 24.2701 29.02L24.2701 28.87C24.2701 28.4509 23.9064 28.277 23.5001 28.38C23.3466 28.4189 23.1834 28.3126 23.0157 28.2033C22.8466 28.0931 22.6729 27.9799 22.5001 28.01C21.9859 28.0997 22.0453 28.3605 21.5001 28.38C21.236 28.3895 21.1018 28.2996 20.9601 28.2048C20.8401 28.1244 20.7146 28.0404 20.5001 28.01C19.9999 28.01 19.9694 28.2685 19.5001 28.38C19.0219 28.4936 18.4312 28.4354 18.2701 28.38C17.6578 28.1694 17.117 27.8305 16.7201 27.34C16.2707 26.7847 16.0001 26.03 16.0001 25.01ZM27.753 24.29C27.2722 24.29 26.8824 23.9059 26.8824 23.432C26.8824 22.9581 27.2722 22.574 27.753 22.574C28.2338 22.574 28.6236 22.9581 28.6236 23.432C28.6236 23.9059 28.2338 24.29 27.753 24.29Z" fill-rule="evenodd"  fill="#FFFFFF" >
</path>
<path     fill="#FFFFFF"  d="M26.1614 37.7016C26.5286 37.3897 26.4082 36.7939 25.9495 36.6466L21.8161 35.32C20.9381 35.038 19.981 35.3918 19.4991 36.1781L19.0989 36.8256C19.0801 36.8724 19.1225 36.9207 19.1675 36.8962L20.1209 36.374L20.294 37.338C20.3024 37.3863 20.3667 37.3985 20.385 37.353L20.9253 36.1691C21.0421 35.9162 21.3539 35.805 21.6053 35.925L25.4947 37.7786C25.7132 37.8829 25.9769 37.8584 26.1614 37.7016Z">
</path>
<path     fill="#FFFFFF"  d="M27.206 35.4807C27.5571 35.1638 27.4284 34.5825 26.9773 34.4404L23.0629 33.2126C22.2943 32.9705 21.4525 33.207 20.932 33.8221L20.5637 34.2561C20.5361 34.2886 20.5636 34.3379 20.6063 34.3379L21.5663 34.3356L21.5701 35.5333C21.57 35.5869 21.6411 35.598 21.661 35.5483L22.3243 34.1121C22.4417 33.8586 22.7528 33.7464 23.0043 33.868L26.5318 35.5762C26.7557 35.6844 27.0213 35.6473 27.206 35.4807Z">
</path>
<path   fill="rgba(255, 255, 255, 1)"  d="M35.5794 43.9366L37.4426 50.523L37.9102 50.3401L37.7944 49.8537L35.8847 50.5103L36.1163 51.4831L38.026 50.8265L38.3778 50.1573L36.5146 43.571L35.5794 43.9366ZM38.3778 50.1573L37.9102 50.3401L38.026 50.8265L38.5191 50.657L38.3778 50.1573ZM36.1163 51.4831C36.3774 51.3933 36.5373 51.1028 36.4733 50.8341C36.4094 50.5655 36.1458 50.4205 35.8847 50.5103C35.6235 50.6001 35.4637 50.8906 35.5276 51.1593C35.5916 51.4279 35.8551 51.5729 36.1163 51.4831Z">
</path>
<path   fill="rgba(255, 255, 255, 1)"  d="M31.5816 45.1613L30.901 50.9919L31.3897 51.0864L31.4773 50.5942L29.0878 49.9801L28.9126 50.9647L31.3021 51.5787L31.8783 51.1809L32.5589 45.3504L31.5816 45.1613ZM31.8783 51.1809L31.3897 51.0864L31.3021 51.5787L31.8164 51.7109L31.8783 51.1809ZM28.9126 50.9647C29.18 51.0334 29.436 50.8687 29.4844 50.5968C29.5328 50.325 29.3552 50.0488 29.0878 49.9801C28.8204 49.9114 28.5643 50.0761 28.516 50.3479C28.4676 50.6198 28.6452 50.8959 28.9126 50.9647Z">
</path>
</svg>
